<?xml version="1.0" encoding="utf-8"?>
<!-- Generator: Adobe Illustrator 21.0.2, SVG Export Plug-In . SVG Version: 6.00 Build 0)  -->
<svg version="1.1" id="Layer_1" xmlns="http://www.w3.org/2000/svg" xmlns:xlink="http://www.w3.org/1999/xlink" x="0px" y="0px"
	 viewBox="0 0 128 128" style="enable-background:new 0 0 128 128;" xml:space="preserve">
<style type="text/css">
	.st0{fill:#DF8FDB;}
	.st1{fill:#333333;}
	.st2{fill:#247DAB;}
	.st3{fill:#7A1577;}
	.st4{fill:#AEC5FF;}
	.st5{fill:#6A60A7;}
</style>
<g>
	<polygon class="st0" points="0,4.1 0,44.9 34.1,38.2 	"/>
	<polygon class="st1" points="34.3,38.1 0,3.9 0,4.1 34.1,38.2 	"/>
	<polygon class="st2" points="0,76 0,102.5 22.1,98.1 	"/>
	<polygon class="st3" points="36.2,43.7 0,50.9 0,67.9 26.1,94 	"/>
	<polygon class="st1" points="25.4,97.4 26.1,94 0,67.9 0,76 22.1,98.1 	"/>
	<polygon class="st1" points="36.8,40.7 34.3,38.1 34.1,38.2 0,44.9 0,50.9 36.2,43.7 	"/>
	<polygon class="st4" points="44.9,0 4.2,0 38.1,33.9 	"/>
	<path class="st1" d="M36.8,40.7l0.3-1.4c0-0.1,0-0.3,0.1-0.4l1-5L4.2,0H0v3.9l34.3,34.3L36.8,40.7z"/>
	<polygon class="st5" points="102.7,0 76.4,0 98.3,22 	"/>
	<polygon class="st3" points="94.2,26 68.2,0 51,0 43.8,36.1 	"/>
	<path class="st1" d="M37.1,38.9c0.1-0.4,0.4-0.8,0.7-1.1c0.4-0.4,0.9-0.7,1.5-0.8l4.4-0.9L51,0h-6.1l-6.8,33.9L37.1,38.9z"/>
	<polygon class="st1" points="97.7,25.3 98.3,22 76.4,0 68.2,0 94.2,26 	"/>
	<polygon class="st5" points="91.7,84.3 128,77.1 128,59.8 101.9,33.6 	"/>
	<polygon class="st4" points="33.7,101.8 59.9,128 77.2,128 84.5,91.6 	"/>
	<polygon class="st2" points="82.2,86 41.8,45.7 31.6,96.2 	"/>
	<path class="st1" d="M82.2,86L31.6,96.2l10.2-50.6L38,41.9c-0.8-0.8-1-2-0.8-2.9c0.1-0.4,0.4-0.8,0.7-1.2c-0.3,0.3-0.6,0.7-0.7,1.1
		c0,0.1-0.1,0.3-0.1,0.4l-0.3,1.4l-0.6,3L26.1,94l-0.7,3.5l1.9-0.4c0.9-0.2,2,0.1,2.7,0.8c0.2,0.2,0.4,0.5,0.5,0.7l3.2,3.2
		l50.8-10.2l0.5-2.7L82.2,86z"/>
	<polygon class="st2" points="96.5,31.5 45.9,41.6 86.3,82.1 	"/>
	<path class="st1" d="M98.8,30.6c-0.3-0.1-0.5-0.3-0.8-0.5c-0.7-0.7-0.9-1.6-0.8-2.7l0.4-2.1L94.2,26L43.8,36.1L39.4,37
		c-0.6,0.1-1.1,0.4-1.5,0.8c-0.3,0.3-0.5,0.7-0.7,1.2c-0.2,0.9,0,2.1,0.8,2.9l3.8,3.8L82.2,86l2.9,2.9l0.2-1c0-0.3,0-0.6,0.1-0.8
		c0.3-1,1.2-1.9,2.2-2l4.2-0.8l10.2-50.7L98.8,30.6z M45.9,41.6l50.7-10.1L86.3,82.1L45.9,41.6z"/>
	<polygon class="st5" points="25.3,128 52,128 29.7,105.8 	"/>
	<path class="st1" d="M30.5,98.6c0.3,0.6,0.4,1.2,0.3,1.9L25.3,128h0l4.4-22.2L52,128h7.9l-26.2-26.2L30.5,98.6z"/>
	<polygon class="st3" points="24.2,103.7 0,108.5 0,128 19.3,128 	"/>
	<path class="st1" d="M30.8,100.5c0.1-0.7,0-1.4-0.3-1.9c-0.1-0.3-0.3-0.5-0.5-0.7c-0.7-0.7-1.7-1-2.7-0.8l-1.9,0.4l-3.3,0.7
		L0,102.5v6l24.2-4.9L19.3,128h5.9L30.8,100.5z"/>
	<polygon class="st0" points="103.9,24.2 128,19.3 128,0 108.7,0 	"/>
	<path class="st1" d="M97.7,25.3l-0.4,2.1c-0.1,1,0.1,2,0.8,2.7c0.2,0.2,0.5,0.4,0.8,0.5l-0.7-0.7c-0.8-0.8-1-2-0.8-2.9
		c0.3-1,1.2-1.9,2.2-2l4.3-0.9L108.7,0h-6l-4.4,22L97.7,25.3z"/>
	<polygon class="st0" points="128,51.6 128,25.3 106,29.7 	"/>
	<path class="st1" d="M103.9,24.2L99.6,25c-1,0.1-1.9,0.9-2.2,2c-0.2,0.9,0,2.1,0.8,2.9l0.7,0.7l3.1,3.1L128,59.8v-8.1l-22-22
		l22-4.4v-6L103.9,24.2z"/>
	<polygon class="st5" points="83.1,128 124.1,128 89.9,93.8 	"/>
	<path class="st1" d="M86.1,90c-0.6-0.6-0.9-1.3-0.9-2.1l-0.2,1l-0.5,2.7L77.2,128h6l6.8-34.2L86.1,90z"/>
	<polygon class="st4" points="128,123.8 128,83 94,89.8 	"/>
	<path class="st1" d="M94,89.8l34-6.8v-5.9l-36.3,7.2l-4.2,0.8c-1,0.1-1.9,0.9-2.2,2c-0.1,0.3-0.1,0.5-0.1,0.8
		c0,0.7,0.3,1.5,0.9,2.1l3.8,3.8l34.2,34.2h3.9v-4.2L94,89.8z"/>
</g>
</svg>
