<?xml version="1.0" encoding="utf-8"?>
<!-- Generator: Adobe Illustrator 16.0.0, SVG Export Plug-In . SVG Version: 6.00 Build 0)  -->
<!DOCTYPE svg PUBLIC "-//W3C//DTD SVG 1.1//EN" "http://www.w3.org/Graphics/SVG/1.1/DTD/svg11.dtd">
<svg version="1.1" id="grid" xmlns="http://www.w3.org/2000/svg" xmlns:xlink="http://www.w3.org/1999/xlink" x="0px" y="0px"
	 width="345px" height="345px" viewBox="0 0 345 345" enable-background="new 0 0 345 345" xml:space="preserve">
<rect fill="#1B4029" width="20" height="20"/>
<rect x="25" fill="#1B4029" width="20" height="20"/>
<rect x="50" fill="#184B56" width="20" height="20"/>
<rect x="75" fill="#8A464A" width="20" height="20"/>
<rect x="100" fill="#7C6E10" width="20" height="20"/>
<rect x="125" fill="#7C6E10" width="20" height="20"/>
<rect x="150" fill="#184B56" width="20" height="20"/>
<rect x="175" fill="#184B56" width="20" height="20"/>
<rect x="200" fill="#8A464A" width="20" height="20"/>
<rect x="225" fill="#1B4029" width="20" height="20"/>
<rect x="250" fill="#184B56" width="20" height="20"/>
<rect x="275" fill="#7C6E10" width="20" height="20"/>
<rect x="300" fill="#8A464A" width="20" height="20"/>
<rect x="325" fill="#184B56" width="20" height="20"/>
<rect y="25" fill="#7C6E10" width="20" height="20"/>
<rect x="25" y="25" fill="#7C6E10" width="20" height="20"/>
<rect x="50" y="25" fill="#7C6E10" width="20" height="20"/>
<rect x="75" y="25" fill="#8A464A" width="20" height="20"/>
<rect x="100" y="25" fill="#7C6E10" width="20" height="20"/>
<rect x="125" y="25" fill="#1B4029" width="20" height="20"/>
<rect x="150" y="25" fill="#7C6E10" width="20" height="20"/>
<rect x="175" y="25" fill="#7C6E10" width="20" height="20"/>
<rect x="200" y="25" fill="#184B56" width="20" height="20"/>
<rect x="225" y="25" fill="#184B56" width="20" height="20"/>
<rect x="250" y="25" fill="#1B4029" width="20" height="20"/>
<rect x="275" y="25" fill="#8A464A" width="20" height="20"/>
<rect x="300" y="25" fill="#184B56" width="20" height="20"/>
<rect x="325" y="25" fill="#1B4029" width="20" height="20"/>
<rect y="50" fill="#1B4029" width="20" height="20"/>
<rect x="25" y="50" fill="#8A464A" width="20" height="20"/>
<rect x="50" y="50" fill="#184B56" width="20" height="20"/>
<rect x="75" y="50" fill="#8A464A" width="20" height="20"/>
<rect x="100" y="50" fill="#8A464A" width="20" height="20"/>
<rect x="125" y="50" fill="#7C6E10" width="20" height="20"/>
<rect x="150" y="50" fill="#184B56" width="20" height="20"/>
<rect x="175" y="50" fill="#7C6E10" width="20" height="20"/>
<rect x="200" y="50" fill="#184B56" width="20" height="20"/>
<rect x="225" y="50" fill="#184B56" width="20" height="20"/>
<rect x="250" y="50" fill="#8A464A" width="20" height="20"/>
<rect x="275" y="50" fill="#7C6E10" width="20" height="20"/>
<rect x="300" y="50" fill="#1B4029" width="20" height="20"/>
<rect x="325" y="50" fill="#1B4029" width="20" height="20"/>
<rect y="75" fill="#8A464A" width="20" height="20"/>
<rect x="25" y="75" fill="#1B4029" width="20" height="20"/>
<rect x="50" y="75" fill="#184B56" width="20" height="20"/>
<rect x="75" y="75" fill="#7C6E10" width="20" height="20"/>
<rect x="100" y="75" fill="#8A464A" width="20" height="20"/>
<rect x="125" y="75" fill="#8A464A" width="20" height="20"/>
<rect x="150" y="75" fill="#8A464A" width="20" height="20"/>
<rect x="175" y="75" fill="#7C6E10" width="20" height="20"/>
<rect x="200" y="75" fill="#1B4029" width="20" height="20"/>
<rect x="225" y="75" fill="#1B4029" width="20" height="20"/>
<rect x="250" y="75" fill="#8A464A" width="20" height="20"/>
<rect x="275" y="75" fill="#184B56" width="20" height="20"/>
<rect x="300" y="75" fill="#8A464A" width="20" height="20"/>
<rect x="325" y="75" fill="#7C6E10" width="20" height="20"/>
<rect y="100" fill="#1B4029" width="20" height="20"/>
<rect x="25" y="100" fill="#184B56" width="20" height="20"/>
<rect x="50" y="100" fill="#1B4029" width="20" height="20"/>
<rect x="75" y="100" fill="#7C6E10" width="20" height="20"/>
<rect x="100" y="100" fill="#8A464A" width="20" height="20"/>
<rect x="125" y="100" fill="#8A464A" width="20" height="20"/>
<rect x="150" y="100" fill="#1B4029" width="20" height="20"/>
<rect x="175" y="100" fill="#184B56" width="20" height="20"/>
<rect x="200" y="100" fill="#8A464A" width="20" height="20"/>
<rect x="225" y="100" fill="#7C6E10" width="20" height="20"/>
<rect x="250" y="100" fill="#1B4029" width="20" height="20"/>
<rect x="275" y="100" fill="#1B4029" width="20" height="20"/>
<rect x="300" y="100" fill="#7C6E10" width="20" height="20"/>
<rect x="325" y="100" fill="#1B4029" width="20" height="20"/>
<rect y="125" fill="#1B4029" width="20" height="20"/>
<rect x="25" y="125" fill="#7C6E10" width="20" height="20"/>
<rect x="50" y="125" fill="#1B4029" width="20" height="20"/>
<rect x="75" y="125" fill="#8A464A" width="20" height="20"/>
<rect x="100" y="125" fill="#7C6E10" width="20" height="20"/>
<rect x="125" y="125" fill="#7C6E10" width="20" height="20"/>
<rect x="150" y="125" fill="#8A464A" width="20" height="20"/>
<rect x="175" y="125" fill="#8A464A" width="20" height="20"/>
<rect x="200" y="125" fill="#7C6E10" width="20" height="20"/>
<rect x="225" y="125" fill="#184B56" width="20" height="20"/>
<rect x="250" y="125" fill="#7C6E10" width="20" height="20"/>
<rect x="275" y="125" fill="#7C6E10" width="20" height="20"/>
<rect x="300" y="125" fill="#8A464A" width="20" height="20"/>
<rect x="325" y="125" fill="#8A464A" width="20" height="20"/>
<rect y="150" fill="#8A464A" width="20" height="20"/>
<rect x="25" y="150" fill="#1B4029" width="20" height="20"/>
<rect x="50" y="150" fill="#7C6E10" width="20" height="20"/>
<rect x="75" y="150" fill="#184B56" width="20" height="20"/>
<rect x="100" y="150" fill="#184B56" width="20" height="20"/>
<rect x="125" y="150" fill="#1B4029" width="20" height="20"/>
<rect x="150" y="150" fill="#184B56" width="20" height="20"/>
<rect x="175" y="150" fill="#1B4029" width="20" height="20"/>
<rect x="200" y="150" fill="#7C6E10" width="20" height="20"/>
<rect x="225" y="150" fill="#7C6E10" width="20" height="20"/>
<rect x="250" y="150" fill="#1B4029" width="20" height="20"/>
<rect x="275" y="150" fill="#7C6E10" width="20" height="20"/>
<rect x="300" y="150" fill="#7C6E10" width="20" height="20"/>
<rect x="325" y="150" fill="#8A464A" width="20" height="20"/>
<rect y="175" fill="#8A464A" width="20" height="20"/>
<rect x="25" y="175" fill="#1B4029" width="20" height="20"/>
<rect x="50" y="175" fill="#8A464A" width="20" height="20"/>
<rect x="75" y="175" fill="#8A464A" width="20" height="20"/>
<rect x="100" y="175" fill="#184B56" width="20" height="20"/>
<rect x="125" y="175" fill="#1B4029" width="20" height="20"/>
<rect x="150" y="175" fill="#184B56" width="20" height="20"/>
<rect x="175" y="175" fill="#643C7E" width="20" height="20"/>
<rect x="200" y="175" fill="#1B4029" width="20" height="20"/>
<rect x="225" y="175" fill="#184B56" width="20" height="20"/>
<rect x="250" y="175" fill="#1B4029" width="20" height="20"/>
<rect x="275" y="175" fill="#7C6E10" width="20" height="20"/>
<rect x="300" y="175" fill="#7C6E10" width="20" height="20"/>
<rect x="325" y="175" fill="#8A464A" width="20" height="20"/>
<rect y="200" fill="#1B4029" width="20" height="20"/>
<rect x="25" y="200" fill="#7C6E10" width="20" height="20"/>
<rect x="50" y="200" fill="#7C6E10" width="20" height="20"/>
<rect x="75" y="200" fill="#7C6E10" width="20" height="20"/>
<rect x="100" y="200" fill="#184B56" width="20" height="20"/>
<rect x="125" y="200" fill="#184B56" width="20" height="20"/>
<rect x="150" y="200" fill="#1B4029" width="20" height="20"/>
<rect x="175" y="200" fill="#8A464A" width="20" height="20"/>
<rect x="200" y="200" fill="#1B4029" width="20" height="20"/>
<rect x="225" y="200" fill="#8A464A" width="20" height="20"/>
<rect x="250" y="200" fill="#8A464A" width="20" height="20"/>
<rect x="275" y="200" fill="#7C6E10" width="20" height="20"/>
<rect x="300" y="200" fill="#7C6E10" width="20" height="20"/>
<rect x="325" y="200" fill="#184B56" width="20" height="20"/>
<rect y="225" fill="#184B56" width="20" height="20"/>
<rect x="25" y="225" fill="#8A464A" width="20" height="20"/>
<rect x="50" y="225" fill="#1B4029" width="20" height="20"/>
<rect x="75" y="225" fill="#8A464A" width="20" height="20"/>
<rect x="100" y="225" fill="#184B56" width="20" height="20"/>
<rect x="125" y="225" fill="#8A464A" width="20" height="20"/>
<rect x="150" y="225" fill="#1B4029" width="20" height="20"/>
<rect x="175" y="225" fill="#7C6E10" width="20" height="20"/>
<rect x="200" y="225" fill="#184B56" width="20" height="20"/>
<rect x="225" y="225" fill="#8A464A" width="20" height="20"/>
<rect x="250" y="225" fill="#8A464A" width="20" height="20"/>
<rect x="275" y="225" fill="#184B56" width="20" height="20"/>
<rect x="300" y="225" fill="#8A464A" width="20" height="20"/>
<rect x="325" y="225" fill="#1B4029" width="20" height="20"/>
<rect y="250" fill="#1B4029" width="20" height="20"/>
<rect x="25" y="250" fill="#7C6E10" width="20" height="20"/>
<rect x="50" y="250" fill="#1B4029" width="20" height="20"/>
<rect x="75" y="250" fill="#1B4029" width="20" height="20"/>
<rect x="100" y="250" fill="#184B56" width="20" height="20"/>
<rect x="125" y="250" fill="#7C6E10" width="20" height="20"/>
<rect x="150" y="250" fill="#184B56" width="20" height="20"/>
<rect x="175" y="250" fill="#8A464A" width="20" height="20"/>
<rect x="200" y="250" fill="#1B4029" width="20" height="20"/>
<rect x="225" y="250" fill="#7C6E10" width="20" height="20"/>
<rect x="250" y="250" fill="#7C6E10" width="20" height="20"/>
<rect x="275" y="250" fill="#184B56" width="20" height="20"/>
<rect x="300" y="250" fill="#8A464A" width="20" height="20"/>
<rect x="325" y="250" fill="#8A464A" width="20" height="20"/>
<rect y="275" fill="#8A464A" width="20" height="20"/>
<rect x="25" y="275" fill="#1B4029" width="20" height="20"/>
<rect x="50" y="275" fill="#8A464A" width="20" height="20"/>
<rect x="75" y="275" fill="#184B56" width="20" height="20"/>
<rect x="100" y="275" fill="#8A464A" width="20" height="20"/>
<rect x="125" y="275" fill="#8A464A" width="20" height="20"/>
<rect x="150" y="275" fill="#8A464A" width="20" height="20"/>
<rect x="175" y="275" fill="#1B4029" width="20" height="20"/>
<rect x="200" y="275" fill="#1B4029" width="20" height="20"/>
<rect x="225" y="275" fill="#1B4029" width="20" height="20"/>
<rect x="250" y="275" fill="#1B4029" width="20" height="20"/>
<rect x="275" y="275" fill="#184B56" width="20" height="20"/>
<rect x="300" y="275" fill="#7C6E10" width="20" height="20"/>
<rect x="325" y="275" fill="#7C6E10" width="20" height="20"/>
<rect y="300" fill="#184B56" width="20" height="20"/>
<rect x="25" y="300" fill="#1B4029" width="20" height="20"/>
<rect x="50" y="300" fill="#184B56" width="20" height="20"/>
<rect x="75" y="300" fill="#1B4029" width="20" height="20"/>
<rect x="100" y="300" fill="#8A464A" width="20" height="20"/>
<rect x="125" y="300" fill="#7C6E10" width="20" height="20"/>
<rect x="150" y="300" fill="#1B4029" width="20" height="20"/>
<rect x="175" y="300" fill="#8A464A" width="20" height="20"/>
<rect x="200" y="300" fill="#184B56" width="20" height="20"/>
<rect x="225" y="300" fill="#8A464A" width="20" height="20"/>
<rect x="250" y="300" fill="#7C6E10" width="20" height="20"/>
<rect x="275" y="300" fill="#7C6E10" width="20" height="20"/>
<rect x="300" y="300" fill="#7C6E10" width="20" height="20"/>
<rect x="325" y="300" fill="#7C6E10" width="20" height="20"/>
<rect y="325" fill="#1B4029" width="20" height="20"/>
<rect x="25" y="325" fill="#184B56" width="20" height="20"/>
<rect x="50" y="325" fill="#1B4029" width="20" height="20"/>
<rect x="75" y="325" fill="#184B56" width="20" height="20"/>
<rect x="100" y="325" fill="#1B4029" width="20" height="20"/>
<rect x="125" y="325" fill="#184B56" width="20" height="20"/>
<rect x="150" y="325" fill="#184B56" width="20" height="20"/>
<rect x="175" y="325" fill="#184B56" width="20" height="20"/>
<rect x="200" y="325" fill="#184B56" width="20" height="20"/>
<rect x="225" y="325" fill="#184B56" width="20" height="20"/>
<rect x="250" y="325" fill="#184B56" width="20" height="20"/>
<rect x="275" y="325" fill="#184B56" width="20" height="20"/>
<rect x="300" y="325" fill="#184B56" width="20" height="20"/>
<rect x="325" y="325" fill="#184B56" width="20" height="20"/>
</svg>
