<?xml version="1.0" encoding="utf-8"?>
<!-- Generator: Adobe Illustrator 20.1.0, SVG Export Plug-In . SVG Version: 6.00 Build 0)  -->
<svg version="1.1" id="Layer_1" xmlns="http://www.w3.org/2000/svg" xmlns:xlink="http://www.w3.org/1999/xlink" x="0px" y="0px"
	 viewBox="0 0 316 300" style="enable-background:new 0 0 316 300;" xml:space="preserve">
<style type="text/css">
	.st0{fill:#57A8DD;}
	.st1{fill:#3A5C7F;}
	.st2{fill:#FB970D;}
	.st3{fill:#5BA921;}
	.st4{fill:#E75627;}
</style>
<title>Slice 1</title>
<desc>Created with Sketch.</desc>
<g id="Page-1">
	<g id="Group">
		<path id="Fill-234" class="st0" d="M211.6,252.9c5.3-1,10.5,2.4,11.5,7.7c1,5.3-2.4,10.4-7.7,11.5c-5.3,1-10.5-2.4-11.5-7.7
			C202.8,259.1,206.3,253.9,211.6,252.9z M212,255.2c-4,0.8-6.7,4.7-5.9,8.8c0.8,4,4.7,6.7,8.8,5.9c4-0.8,6.7-4.7,5.9-8.8
			C220,257,216.1,254.4,212,255.2L212,255.2z"/>
		<path id="Fill-235" class="st1" d="M152.3,146.7c7.4-2,15.1,2.4,17.1,9.9c2,7.4-2.4,15.1-9.9,17.1c-7.4,2-15.1-2.4-17.1-9.9
			C140.4,156.3,144.9,148.7,152.3,146.7z M153.2,150.1c-5.6,1.5-8.9,7.2-7.4,12.8c1.5,5.6,7.2,8.9,12.8,7.4
			c5.6-1.5,8.9-7.2,7.4-12.8C164.5,151.9,158.8,148.6,153.2,150.1L153.2,150.1z"/>
		<path id="Fill-236" class="st2" d="M174.8,112.5c5.9-1.6,11.9,1.9,13.5,7.8c1.6,5.9-1.9,11.9-7.8,13.5c-5.9,1.6-11.9-1.9-13.5-7.8
			C165.5,120.1,168.9,114.1,174.8,112.5z M175.5,115.2c-4.4,1.2-7,5.7-5.8,10.1c1.2,4.4,5.7,7,10.1,5.8c4.4-1.2,7-5.7,5.8-10.1
			C184.4,116.6,179.9,114,175.5,115.2L175.5,115.2z"/>
		<path id="Fill-237" class="st3" d="M90.2,90.8c6.3-2.4,13.3,0.8,15.7,7.2c2.4,6.3-0.8,13.3-7.2,15.7c-6.3,2.4-13.3-0.8-15.7-7.2
			C80.7,100.2,83.9,93.2,90.2,90.8z M92.1,93.4c-4.9,1.3-7.8,6.3-6.5,11.2c1.3,4.9,6.3,7.8,11.2,6.5c4.9-1.3,7.8-6.3,6.5-11.2
			C102,95,97,92.1,92.1,93.4L92.1,93.4z"/>
		<path id="Fill-238" class="st3" d="M133.5,65.9c11.1-3,22.5,3.6,25.4,14.7c3,11.1-3.6,22.5-14.7,25.4c-11.1,3-22.5-3.6-25.4-14.7
			C115.9,80.2,122.4,68.8,133.5,65.9z M134.8,70.9c-8.3,2.2-13.2,10.8-11,19.1c2.2,8.3,10.8,13.2,19.1,11c8.3-2.2,13.2-10.8,11-19.1
			C151.7,73.6,143.2,68.7,134.8,70.9L134.8,70.9z"/>
		<path id="Fill-239" class="st2" d="M262.6,174.8c14.9-9,15.6-23.2,9.4-33.4l4.8,0.9c2.1,1.6,5,2.3,7.8,1.5l0,0l4.8,0.9
			c-9.6,7.2-14.3,20.5-3.9,34.5l-9.5-1.9c-1.3-0.5-2.6-0.7-4-0.8L262.6,174.8"/>
		<path id="Fill-240" class="st3" d="M271.2,130.6c4.6-11.1-2.9-29-14-33.6l5.1-2.1c0.6,0,1.2-0.1,1.8-0.3c1.4-0.4,2.7-1.1,3.7-2
			l5.1-2.1c-4.6,11.1,2.9,29,14,33.6l-5.1,2.1c-0.6,0-1.2,0.1-1.8,0.3c-1.4,0.4-2.7,1.1-3.7,2L271.2,130.6"/>
		<path id="Fill-241" class="st1" d="M250.1,88.3C247.6,76.6,235,65,217.9,68.5l5.6-7.7c1.1-1,1.9-2.2,2.6-3.5l5.6-7.7
			c1.9,17.3,16.9,25.8,28.8,24.5l-2.9,4c-2.5,1.3-4.2,3.7-4.7,6.4L250.1,88.3"/>
		<path id="Fill-242" class="st0" d="M199.8,61c-9.5-14.6-38.2-17.8-48.2-11.2l0.8-4.9c1.4-2.1,2-4.8,1.3-7.4l0-0.1l0.8-4.9
			c7.3,9.5,35.5,15.9,49.3,5.2l-1.5,9c-0.6,1.7-1,3.4-0.9,5.3L199.8,61"/>
		<path id="Fill-243" class="st2" d="M139.7,50.5c-10.8-5.3-48.9,5-56.5,20.6l-2.6-8.6c-0.1-0.8-0.2-1.6-0.4-2.5
			c-0.3-1.1-0.8-2.2-1.3-3.2l-2.6-8.5c15.1,8.7,52.4-4.2,58.4-14.6l1.5,4.8c-0.1,1.1-0.1,2.3,0.2,3.5c0.4,1.4,1.1,2.6,1.9,3.6
			L139.7,50.5"/>
		<path id="Fill-244" class="st4" d="M53.8,153.1c6.8,6.5,14.4,10,26-2l-1.5,22.4c-9.9-13.4-18-11-25.5-5.4l0.2-3.7
			c1.2-1.7,1.6-3.9,1-6.1c-0.1-0.5-0.3-1-0.5-1.4L53.8,153.1"/>
		<path id="Fill-245" class="st0" d="M91.9,196.4c3.4-7,2.9-12.6-7.2-17.6l22.1-5.9c-6.3,9.4-3.9,14.5,2.6,18.8l-4.5,1.2
			c-1.4-0.3-2.9-0.4-4.5,0.1c-1.5,0.4-2.8,1.2-3.9,2.2L91.9,196.4"/>
		<path id="Fill-246" class="st1" d="M92.1,145.7c14.8-0.2,18.3-6.9,18.2-17l3.6,3.1c1.1,2.8,3.5,4.8,6.3,5.5l3.6,3.1
			c-10.1,1.3-16.2,5.8-14.3,20.4l-8-7c-0.4-0.4-0.9-0.8-1.4-1.2L92.1,145.7"/>
		<path id="Fill-247" class="st4" d="M202.8,86.7c6.7-6.6,8.7-13.3-0.9-23.1l11.1,0.8c0.3,0,0.5,0,0.8,0.1l11.1,0.8
			c-10.9,8.3-9.9,15.2-4.2,22.7l-4.7-0.3c-2-1.3-4.6-1.7-7.1-1.1c-0.5,0.1-0.9,0.3-1.3,0.5L202.8,86.7"/>
		<path id="Fill-248" class="st3" d="M202.2,103.1c-7.9-9-34-15.2-49.7-1.5l1.6-12.7c0.1-0.6,0.2-1.3,0.3-1.9l1.6-12.7
			c11.7,17.2,38.5,17.8,48.4,11.1l-0.6,4.7c-1.5,2.1-2.1,4.8-1.3,7.5c0.1,0.3,0.2,0.6,0.3,0.8L202.2,103.1"/>
		<path id="Fill-249" class="st3" d="M82.4,100.7c1.3-10.7-1.7-18.1-17-20l8.3-5.8c0.9-0.5,1.7-1,2.4-1.7l8.3-5.8
			c-3.6,15,2.3,20.4,12.8,22.9l-4,2.8c-0.4,0.1-0.8,0.1-1.2,0.2c-2.5,0.7-4.6,2.4-5.7,4.5L82.4,100.7"/>
		<path id="Fill-250" class="st1" d="M38.7,154.9c3.7-5.8,5.7-12.8-7-20.9l26-2.2c-11.2,10.2-8.1,16.7-3.4,21.8l-3.5,0.3
			c-1.7-1-3.7-1.3-5.7-0.8c-1.1,0.3-2.1,0.8-2.9,1.5L38.7,154.9"/>
		<path id="Fill-251" class="st0" d="M36.6,95.5C52.5,90.3,55.2,81.8,51,68.9l6.6,3.1c2.4,2.9,6,4.6,9.9,4.6l6.6,3.1
			c-12.6,5.1-17.3,12.7-11,28.2l-10.1-4.7c-1.9-1.5-4.1-2.5-6.4-3L36.6,95.5"/>
		<path id="Fill-252" class="st0" d="M228.5,118.3c22.4-5,24.2-18.1,21.5-29.8l4,2.1c1.7,2.8,4.9,4.5,8.3,4.3l4,2.1
			c-11,4.6-20.7,13.7-11.8,34.8L228.5,118.3"/>
		<path id="Fill-253" class="st1" d="M220.7,159.7c-19-12.9-45.4-3.2-53.2,8.3l-1.4-5.4c0.4-1.6,0.4-3.4-0.1-5.1
			c-0.4-1.6-1.2-3-2.3-4.2l-1.4-5.4c12.4,6.5,40.2,2.5,50.9-17.8l3.3,13.1c0.1,0.7,0.2,1.4,0.4,2c0.1,0.5,0.3,1,0.5,1.5L220.7,159.7
			"/>
		<path id="Fill-254" class="st2" d="M170.7,131.7c-8.6-6.9-31.6-4.9-39.1,4.4l-0.5-5.6c0.3-1.4,0.3-2.8-0.1-4.3
			c-0.1-0.4-0.3-0.9-0.4-1.3l-0.5-5.6c9.2,7.7,32.1,5.2,39.2-3.3l0.5,4.9c-0.4,1.4-0.4,2.8,0,4.3c0.1,0.5,0.3,1.1,0.6,1.5
			L170.7,131.7"/>
		<path id="Fill-255" class="st2" d="M141.9,28.1c6.4-1.7,13,2.1,14.7,8.5c1.7,6.4-2.1,13-8.5,14.7c-6.4,1.7-13-2.1-14.7-8.5
			C131.7,36.4,135.5,29.8,141.9,28.1z M142.7,31c-4.8,1.3-7.6,6.2-6.4,11c1.3,4.8,6.2,7.6,11,6.4c4.8-1.3,7.6-6.2,6.4-11
			C152.4,32.6,147.5,29.7,142.7,31L142.7,31z"/>
		<path id="Fill-256" class="st0" d="M209.9,34.6c9.3-2.5,18.8,3,21.3,12.3c2.5,9.3-3,18.8-12.3,21.3c-9.3,2.5-18.8-3-21.3-12.3
			S200.6,37.1,209.9,34.6z M211,38.8c-7,1.9-11.1,9-9.2,16c1.9,7,9,11.1,16,9.2c7-1.9,11.1-9,9.2-16C225.1,41.1,218,36.9,211,38.8
			L211,38.8z"/>
		<path id="Fill-257" class="st4" d="M208.1,83.7c6.4-1.7,13,2.1,14.7,8.5c1.7,6.4-2.1,13-8.5,14.7c-6.4,1.7-13-2.1-14.7-8.5
			C197.9,92,201.7,85.4,208.1,83.7z M208.9,86.6c-4.8,1.3-7.6,6.2-6.4,11c1.3,4.8,6.2,7.6,11,6.4c4.8-1.3,7.6-6.2,6.4-11
			C218.6,88.1,213.7,85.3,208.9,86.6L208.9,86.6z"/>
		<path id="Fill-258" class="st1" d="M258.7,74.4c6.4-1.7,13,2.1,14.7,8.5c1.7,6.4-2.1,13-8.5,14.7c-6.4,1.7-13-2.1-14.7-8.5
			C248.5,82.6,252.3,76.1,258.7,74.4z M259.5,77.3c-4.8,1.3-7.6,6.2-6.4,11c1.3,4.8,6.2,7.6,11,6.4c4.8-1.3,7.6-6.2,6.4-11
			C269.2,78.8,264.3,76,259.5,77.3L259.5,77.3z"/>
		<path id="Fill-259" class="st3" d="M279.2,123.6c6.4-1.7,13,2.1,14.7,8.5c1.7,6.4-2.1,13-8.5,14.7c-6.4,1.7-13-2.1-14.7-8.5
			C269,131.9,272.8,125.3,279.2,123.6z M279.9,126.5c-4.8,1.3-7.6,6.2-6.4,11c1.3,4.8,6.2,7.6,11,6.4c4.8-1.3,7.6-6.2,6.4-11
			C289.6,128,284.7,125.2,279.9,126.5L279.9,126.5z"/>
		<path id="Fill-260" class="st0" d="M227.6,118.5c12.2-3.3,24.8,4,28.1,16.2c3.3,12.2-4,24.8-16.2,28.1c-12.2,3.3-24.8-4-28.1-16.2
			C208.1,134.4,215.4,121.8,227.6,118.5z M229.1,124.1c-9.2,2.5-14.6,11.9-12.2,21.1c2.5,9.2,11.9,14.6,21.1,12.2
			c9.2-2.5,14.6-11.9,12.2-21.1C247.7,127.1,238.3,121.6,229.1,124.1L229.1,124.1z"/>
		<path id="Fill-261" class="st1" d="M119.2,117c6.4-1.7,13,2.1,14.7,8.5c1.7,6.4-2.1,13-8.5,14.7c-6.4,1.7-13-2.1-14.7-8.5
			C109,125.3,112.8,118.7,119.2,117z M120,119.9c-4.8,1.3-7.6,6.2-6.4,11c1.3,4.8,6.2,7.6,11,6.4s7.6-6.2,6.4-11
			C129.7,121.5,124.8,118.6,120,119.9L120,119.9z"/>
		<path id="Fill-262" class="st0" d="M63.1,46.6c9.3-2.5,18.8,3,21.3,12.3c2.5,9.3-3,18.8-12.3,21.3c-9.3,2.5-18.8-3-21.3-12.3
			C48.2,58.7,53.8,49.1,63.1,46.6z M64.2,50.8c-7,1.9-11.1,9-9.2,16c1.9,7,9,11.1,16,9.2s11.1-9,9.2-16C78.3,53.1,71.2,49,64.2,50.8
			L64.2,50.8z"/>
		<path id="Fill-263" class="st1" d="M37.7,95.2c11.4-3.1,23.2,3.7,26.3,15.2c3.1,11.5-3.7,23.2-15.2,26.3
			c-11.4,3.1-23.2-3.7-26.3-15.2C19.4,110,26.2,98.2,37.7,95.2z M39.1,100.4c-8.6,2.3-13.7,11.1-11.4,19.7
			c2.3,8.6,11.1,13.7,19.7,11.4c8.6-2.3,13.7-11.1,11.4-19.7C56.5,103.2,47.7,98.1,39.1,100.4L39.1,100.4z"/>
		<path id="Fill-264" class="st0" d="M87.8,146.3c9.3-2.5,18.8,3,21.3,12.3c2.5,9.3-3,18.8-12.3,21.3c-9.3,2.5-18.8-3-21.3-12.3
			C73,158.4,78.5,148.8,87.8,146.3z M89,150.5c-7,1.9-11.1,9-9.2,16c1.9,7,9,11.1,16,9.2c7-1.9,11.1-9,9.2-16
			C103.1,152.8,95.9,148.7,89,150.5L89,150.5z"/>
		<path id="Fill-265" class="st4" d="M44.5,150.7c5.2-1.4,10.6,1.7,12,6.9c1.4,5.2-1.7,10.6-6.9,12c-5.2,1.4-10.6-1.7-12-6.9
			C36.1,157.5,39.2,152.1,44.5,150.7z M45.1,153.1c-3.9,1.1-6.2,5.1-5.2,9c1.1,3.9,5.1,6.2,9,5.2c3.9-1.1,6.2-5.1,5.2-9
			C53,154.3,49,152,45.1,153.1L45.1,153.1z"/>
		<path id="Fill-266" class="st3" d="M99.6,190.1c6.4-1.7,13,2.1,14.7,8.5c1.7,6.4-2.1,13-8.5,14.7c-6.4,1.7-13-2.1-14.7-8.5
			C89.4,198.4,93.2,191.8,99.6,190.1z M100.4,193c-4.8,1.3-7.6,6.2-6.4,11c1.3,4.8,6.2,7.6,11,6.4c4.8-1.3,7.6-6.2,6.4-11
			C110.1,194.5,105.2,191.7,100.4,193L100.4,193z"/>
		<path id="Fill-267" class="st0" d="M204.7,258.2c4.3-8.8,2.4-21-10.5-27.3l18.4-5.4c-7.4,12.2-2.4,23.5,6,28.6l-3.6,1.1
			c-0.9-0.2-1.9-0.2-3,0c-1.5,0.3-2.8,1-3.8,2L204.7,258.2"/>
		<path id="Fill-268" class="st4" d="M264.4,205.5c-15.9-7.2-45.1,5.5-51,18.5l-2.4-5.9c0-0.7-0.1-1.4-0.2-2.1
			c-0.4-2.1-1.4-3.9-2.7-5.3l-2.4-5.9c13.3,5.4,43.2-5.6,49.7-21.7l3.1,7.8c0,0.4,0.1,0.8,0.2,1.3c0.4,2.1,1.3,3.9,2.5,5.5
			L264.4,205.5"/>
		<path id="Fill-269" class="st4" d="M197.6,204.1c7.7-1.5,15.3,3.5,16.8,11.3c1.5,7.7-3.5,15.3-11.3,16.8
			c-7.7,1.5-15.3-3.5-16.8-11.3C184.8,213.1,189.9,205.6,197.6,204.1z M198.3,207.6c-5.8,1.1-9.5,6.8-8.4,12.5
			c1.1,5.8,6.8,9.5,12.5,8.4c5.8-1.1,9.5-6.8,8.4-12.5C209.7,210.2,204.1,206.5,198.3,207.6L198.3,207.6z"/>
		<path id="Fill-270" class="st2" d="M267.1,172.8c9.3-2.5,18.8,3,21.3,12.3c2.5,9.3-3,18.8-12.3,21.3c-9.3,2.5-18.8-3-21.3-12.3
			C252.3,184.9,257.8,175.3,267.1,172.8z M268.2,177.1c-7,1.9-11.1,9-9.2,16c1.9,7,9,11.1,16,9.2c7-1.9,11.1-9,9.2-16
			C282.3,179.3,275.2,175.2,268.2,177.1L268.2,177.1z"/>
		<path id="Fill-271" class="st2" d="M211.3,170.1c6.2-2.4,13.1,0.8,15.5,6.9c2.4,6.2-0.8,13.1-7,15.5c-6.2,2.4-13.1-0.8-15.5-6.9
			C202,179.4,205.1,172.5,211.3,170.1z M212.4,172.9c-4.6,1.8-7,7-5.2,11.6c1.8,4.6,7,7,11.6,5.2c4.6-1.8,7-7,5.2-11.6
			C222.3,173.5,217.1,171.2,212.4,172.9L212.4,172.9z"/>
		<path id="Fill-272" class="st1" d="M184,236.7c6.3-2,13.1,1.4,15.1,7.8c2,6.3-1.5,13.1-7.8,15.1c-6.3,2-13.1-1.5-15.1-7.8
			C174.2,245.5,177.7,238.8,184,236.7z M185,239.6c-4.7,1.5-7.3,6.6-5.8,11.3c1.5,4.7,6.6,7.3,11.3,5.8c4.7-1.5,7.3-6.6,5.8-11.3
			C194.8,240.7,189.7,238.1,185,239.6L185,239.6z"/>
		<path id="Fill-273" class="st2" d="M165.9,186.5c15.4,8.2,33.5-0.2,39.1-10.8l1.7,4.7c-0.2,1.4,0,2.8,0.5,4.2
			c0.5,1.2,1.2,2.3,2.1,3.2l1.7,4.7c-11.1-4.7-30.4,0.2-37.2,16.3l-3.2-8.9c-0.1-0.9-0.4-1.7-0.7-2.6c-0.2-0.7-0.5-1.3-0.9-1.9
			L165.9,186.5"/>
		<path id="Fill-274" class="st1" d="M174.7,206.4c-4.5,16.9,4.5,27,16.1,30.1l-4.1,2.7c-0.6,0.1-1.2,0.2-1.8,0.4
			c-2.2,0.7-3.9,2.2-5,4l-4.1,2.7c1.9-11.9-3.6-24.3-20.9-27.1l8.2-5.3c1.2-0.6,2.3-1.3,3.3-2.1L174.7,206.4"/>
		<path id="Fill-275" class="st3" d="M144.7,213.6c-11.7-13-25-11-34-3l0-4.9c1-2,1.3-4.5,0.5-6.8c-0.1-0.4-0.3-0.8-0.5-1.2l0-4.9
			c8.9,8.1,22.2,10.2,34-2.7l0,9.7c-0.2,1.3-0.2,2.6,0,3.9L144.7,213.6"/>
		<path id="Fill-276" class="st1" d="M152.3,185.3c9.2-3,19,2.1,22,11.2c3,9.2-2.1,19-11.3,22c-9.2,3-19-2.1-22-11.2
			C138.1,198.1,143.1,188.3,152.3,185.3z M153.7,189.4c-6.9,2.2-10.7,9.6-8.4,16.5c2.2,6.9,9.6,10.7,16.5,8.4
			c6.9-2.2,10.7-9.6,8.4-16.5C167.9,191,160.5,187.2,153.7,189.4L153.7,189.4z"/>
	</g>
</g>
</svg>
