<svg id="Layer_1" xmlns="http://www.w3.org/2000/svg" viewBox="0 0 316 300"><style>.st0{fill:#57a8dd}.st1{fill:#3a5c7f}.st2{fill:#fb970d}.st3{fill:#5ba921}.st4{fill:#e75627}</style><title>Slice 1</title><g id="Page-1"><g id="Group"><path id="Fill-234" class="st0" d="M211.6 252.9c5.3-1 10.5 2.4 11.5 7.7 1 5.3-2.4 10.4-7.7 11.5-5.3 1-10.5-2.4-11.5-7.7-1.1-5.3 2.4-10.5 7.7-11.5zm.4 2.3c-4 .8-6.7 4.7-5.9 8.8.8 4 4.7 6.7 8.8 5.9 4-.8 6.7-4.7 5.9-8.8-.8-4.1-4.7-6.7-8.8-5.9z"/><path id="Fill-235" class="st1" d="M152.3 146.7c7.4-2 15.1 2.4 17.1 9.9 2 7.4-2.4 15.1-9.9 17.1-7.4 2-15.1-2.4-17.1-9.9-2-7.5 2.5-15.1 9.9-17.1zm.9 3.4c-5.6 1.5-8.9 7.2-7.4 12.8 1.5 5.6 7.2 8.9 12.8 7.4 5.6-1.5 8.9-7.2 7.4-12.8-1.5-5.6-7.2-8.9-12.8-7.4z"/><path id="Fill-236" class="st2" d="M174.8 112.5c5.9-1.6 11.9 1.9 13.5 7.8 1.6 5.9-1.9 11.9-7.8 13.5-5.9 1.6-11.9-1.9-13.5-7.8-1.5-5.9 1.9-11.9 7.8-13.5zm.7 2.7c-4.4 1.2-7 5.7-5.8 10.1 1.2 4.4 5.7 7 10.1 5.8 4.4-1.2 7-5.7 5.8-10.1-1.2-4.4-5.7-7-10.1-5.8z"/><path id="Fill-237" class="st3" d="M90.2 90.8c6.3-2.4 13.3.8 15.7 7.2 2.4 6.3-.8 13.3-7.2 15.7-6.3 2.4-13.3-.8-15.7-7.2-2.3-6.3.9-13.3 7.2-15.7zm1.9 2.6a9.14 9.14 0 0 0-6.5 11.2c1.3 4.9 6.3 7.8 11.2 6.5 4.9-1.3 7.8-6.3 6.5-11.2a9.14 9.14 0 0 0-11.2-6.5z"/><path id="Fill-238" class="st3" d="M133.5 65.9c11.1-3 22.5 3.6 25.4 14.7 3 11.1-3.6 22.5-14.7 25.4-11.1 3-22.5-3.6-25.4-14.7-2.9-11.1 3.6-22.5 14.7-25.4zm1.3 5c-8.3 2.2-13.2 10.8-11 19.1 2.2 8.3 10.8 13.2 19.1 11 8.3-2.2 13.2-10.8 11-19.1-2.2-8.3-10.7-13.2-19.1-11z"/><path id="Fill-239" class="st2" d="M262.6 174.8c14.9-9 15.6-23.2 9.4-33.4l4.8.9c2.1 1.6 5 2.3 7.8 1.5l4.8.9c-9.6 7.2-14.3 20.5-3.9 34.5l-9.5-1.9c-1.3-.5-2.6-.7-4-.8l-9.4-1.7"/><path id="Fill-240" class="st3" d="M271.2 130.6c4.6-11.1-2.9-29-14-33.6l5.1-2.1c.6 0 1.2-.1 1.8-.3 1.4-.4 2.7-1.1 3.7-2l5.1-2.1c-4.6 11.1 2.9 29 14 33.6l-5.1 2.1c-.6 0-1.2.1-1.8.3-1.4.4-2.7 1.1-3.7 2l-5.1 2.1"/><path id="Fill-241" class="st1" d="M250.1 88.3C247.6 76.6 235 65 217.9 68.5l5.6-7.7c1.1-1 1.9-2.2 2.6-3.5l5.6-7.7c1.9 17.3 16.9 25.8 28.8 24.5l-2.9 4c-2.5 1.3-4.2 3.7-4.7 6.4l-2.8 3.8"/><path id="Fill-242" class="st0" d="M199.8 61c-9.5-14.6-38.2-17.8-48.2-11.2l.8-4.9c1.4-2.1 2-4.8 1.3-7.4v-.1l.8-4.9c7.3 9.5 35.5 15.9 49.3 5.2l-1.5 9c-.6 1.7-1 3.4-.9 5.3l-1.6 9"/><path id="Fill-243" class="st2" d="M139.7 50.5c-10.8-5.3-48.9 5-56.5 20.6l-2.6-8.6c-.1-.8-.2-1.6-.4-2.5-.3-1.1-.8-2.2-1.3-3.2l-2.6-8.5c15.1 8.7 52.4-4.2 58.4-14.6l1.5 4.8c-.1 1.1-.1 2.3.2 3.5.4 1.4 1.1 2.6 1.9 3.6l1.4 4.9"/><path id="Fill-244" class="st4" d="M53.8 153.1c6.8 6.5 14.4 10 26-2l-1.5 22.4c-9.9-13.4-18-11-25.5-5.4l.2-3.7c1.2-1.7 1.6-3.9 1-6.1-.1-.5-.3-1-.5-1.4l.3-3.8"/><path id="Fill-245" class="st0" d="M91.9 196.4c3.4-7 2.9-12.6-7.2-17.6l22.1-5.9c-6.3 9.4-3.9 14.5 2.6 18.8l-4.5 1.2c-1.4-.3-2.9-.4-4.5.1-1.5.4-2.8 1.2-3.9 2.2l-4.6 1.2"/><path id="Fill-246" class="st1" d="M92.1 145.7c14.8-.2 18.3-6.9 18.2-17l3.6 3.1c1.1 2.8 3.5 4.8 6.3 5.5l3.6 3.1c-10.1 1.3-16.2 5.8-14.3 20.4l-8-7c-.4-.4-.9-.8-1.4-1.2l-8-6.9"/><path id="Fill-247" class="st4" d="M202.8 86.7c6.7-6.6 8.7-13.3-.9-23.1l11.1.8c.3 0 .5 0 .8.1l11.1.8C214 73.6 215 80.5 220.7 88l-4.7-.3c-2-1.3-4.6-1.7-7.1-1.1-.5.1-.9.3-1.3.5l-4.8-.4"/><path id="Fill-248" class="st3" d="M202.2 103.1c-7.9-9-34-15.2-49.7-1.5l1.6-12.7c.1-.6.2-1.3.3-1.9l1.6-12.7c11.7 17.2 38.5 17.8 48.4 11.1l-.6 4.7c-1.5 2.1-2.1 4.8-1.3 7.5.1.3.2.6.3.8l-.6 4.7"/><path id="Fill-249" class="st3" d="M82.4 100.7c1.3-10.7-1.7-18.1-17-20l8.3-5.8c.9-.5 1.7-1 2.4-1.7l8.3-5.8c-3.6 15 2.3 20.4 12.8 22.9l-4 2.8c-.4.1-.8.1-1.2.2-2.5.7-4.6 2.4-5.7 4.5l-3.9 2.9"/><path id="Fill-250" class="st1" d="M38.7 154.9c3.7-5.8 5.7-12.8-7-20.9l26-2.2c-11.2 10.2-8.1 16.7-3.4 21.8l-3.5.3c-1.7-1-3.7-1.3-5.7-.8-1.1.3-2.1.8-2.9 1.5l-3.5.3"/><path id="Fill-251" class="st0" d="M36.6 95.5C52.5 90.3 55.2 81.8 51 68.9l6.6 3.1c2.4 2.9 6 4.6 9.9 4.6l6.6 3.1c-12.6 5.1-17.3 12.7-11 28.2L53 103.2c-1.9-1.5-4.1-2.5-6.4-3l-10-4.7"/><path id="Fill-252" class="st0" d="M228.5 118.3c22.4-5 24.2-18.1 21.5-29.8l4 2.1c1.7 2.8 4.9 4.5 8.3 4.3l4 2.1c-11 4.6-20.7 13.7-11.8 34.8l-26-13.5"/><path id="Fill-253" class="st1" d="M220.7 159.7c-19-12.9-45.4-3.2-53.2 8.3l-1.4-5.4c.4-1.6.4-3.4-.1-5.1-.4-1.6-1.2-3-2.3-4.2l-1.4-5.4c12.4 6.5 40.2 2.5 50.9-17.8l3.3 13.1c.1.7.2 1.4.4 2 .1.5.3 1 .5 1.5l3.3 13"/><path id="Fill-254" class="st2" d="M170.7 131.7c-8.6-6.9-31.6-4.9-39.1 4.4l-.5-5.6c.3-1.4.3-2.8-.1-4.3-.1-.4-.3-.9-.4-1.3l-.5-5.6c9.2 7.7 32.1 5.2 39.2-3.3l.5 4.9c-.4 1.4-.4 2.8 0 4.3.1.5.3 1.1.6 1.5l.3 5"/><path id="Fill-255" class="st2" d="M141.9 28.1c6.4-1.7 13 2.1 14.7 8.5 1.7 6.4-2.1 13-8.5 14.7-6.4 1.7-13-2.1-14.7-8.5-1.7-6.4 2.1-13 8.5-14.7zm.8 2.9c-4.8 1.3-7.6 6.2-6.4 11 1.3 4.8 6.2 7.6 11 6.4 4.8-1.3 7.6-6.2 6.4-11-1.3-4.8-6.2-7.7-11-6.4z"/><path id="Fill-256" class="st0" d="M209.9 34.6c9.3-2.5 18.8 3 21.3 12.3s-3 18.8-12.3 21.3-18.8-3-21.3-12.3 3-18.8 12.3-21.3zm1.1 4.2c-7 1.9-11.1 9-9.2 16 1.9 7 9 11.1 16 9.2 7-1.9 11.1-9 9.2-16-1.9-6.9-9-11.1-16-9.2z"/><path id="Fill-257" class="st4" d="M208.1 83.7c6.4-1.7 13 2.1 14.7 8.5 1.7 6.4-2.1 13-8.5 14.7-6.4 1.7-13-2.1-14.7-8.5-1.7-6.4 2.1-13 8.5-14.7zm.8 2.9c-4.8 1.3-7.6 6.2-6.4 11 1.3 4.8 6.2 7.6 11 6.4 4.8-1.3 7.6-6.2 6.4-11-1.3-4.9-6.2-7.7-11-6.4z"/><path id="Fill-258" class="st1" d="M258.7 74.4c6.4-1.7 13 2.1 14.7 8.5 1.7 6.4-2.1 13-8.5 14.7-6.4 1.7-13-2.1-14.7-8.5-1.7-6.5 2.1-13 8.5-14.7zm.8 2.9c-4.8 1.3-7.6 6.2-6.4 11 1.3 4.8 6.2 7.6 11 6.4 4.8-1.3 7.6-6.2 6.4-11-1.3-4.9-6.2-7.7-11-6.4z"/><path id="Fill-259" class="st3" d="M279.2 123.6c6.4-1.7 13 2.1 14.7 8.5 1.7 6.4-2.1 13-8.5 14.7-6.4 1.7-13-2.1-14.7-8.5-1.7-6.4 2.1-13 8.5-14.7zm.7 2.9c-4.8 1.3-7.6 6.2-6.4 11 1.3 4.8 6.2 7.6 11 6.4 4.8-1.3 7.6-6.2 6.4-11-1.3-4.9-6.2-7.7-11-6.4z"/><path id="Fill-260" class="st0" d="M227.6 118.5c12.2-3.3 24.8 4 28.1 16.2 3.3 12.2-4 24.8-16.2 28.1-12.2 3.3-24.8-4-28.1-16.2-3.3-12.2 4-24.8 16.2-28.1zm1.5 5.6c-9.2 2.5-14.6 11.9-12.2 21.1 2.5 9.2 11.9 14.6 21.1 12.2 9.2-2.5 14.6-11.9 12.2-21.1-2.5-9.2-11.9-14.7-21.1-12.2z"/><path id="Fill-261" class="st1" d="M119.2 117c6.4-1.7 13 2.1 14.7 8.5 1.7 6.4-2.1 13-8.5 14.7-6.4 1.7-13-2.1-14.7-8.5-1.7-6.4 2.1-13 8.5-14.7zm.8 2.9c-4.8 1.3-7.6 6.2-6.4 11 1.3 4.8 6.2 7.6 11 6.4s7.6-6.2 6.4-11c-1.3-4.8-6.2-7.7-11-6.4z"/><path id="Fill-262" class="st0" d="M63.1 46.6c9.3-2.5 18.8 3 21.3 12.3s-3 18.8-12.3 21.3-18.8-3-21.3-12.3c-2.6-9.2 3-18.8 12.3-21.3zm1.1 4.2c-7 1.9-11.1 9-9.2 16 1.9 7 9 11.1 16 9.2s11.1-9 9.2-16c-1.9-6.9-9-11-16-9.2z"/><path id="Fill-263" class="st1" d="M37.7 95.2c11.4-3.1 23.2 3.7 26.3 15.2 3.1 11.5-3.7 23.2-15.2 26.3-11.4 3.1-23.2-3.7-26.3-15.2-3.1-11.5 3.7-23.3 15.2-26.3zm1.4 5.2c-8.6 2.3-13.7 11.1-11.4 19.7 2.3 8.6 11.1 13.7 19.7 11.4 8.6-2.3 13.7-11.1 11.4-19.7-2.3-8.6-11.1-13.7-19.7-11.4z"/><path id="Fill-264" class="st0" d="M87.8 146.3c9.3-2.5 18.8 3 21.3 12.3s-3 18.8-12.3 21.3-18.8-3-21.3-12.3c-2.5-9.2 3-18.8 12.3-21.3zm1.2 4.2c-7 1.9-11.1 9-9.2 16 1.9 7 9 11.1 16 9.2 7-1.9 11.1-9 9.2-16-1.9-6.9-9.1-11-16-9.2z"/><path id="Fill-265" class="st4" d="M44.5 150.7c5.2-1.4 10.6 1.7 12 6.9 1.4 5.2-1.7 10.6-6.9 12-5.2 1.4-10.6-1.7-12-6.9-1.5-5.2 1.6-10.6 6.9-12zm.6 2.4c-3.9 1.1-6.2 5.1-5.2 9 1.1 3.9 5.1 6.2 9 5.2 3.9-1.1 6.2-5.1 5.2-9-1.1-4-5.1-6.3-9-5.2z"/><path id="Fill-266" class="st3" d="M99.6 190.1c6.4-1.7 13 2.1 14.7 8.5 1.7 6.4-2.1 13-8.5 14.7-6.4 1.7-13-2.1-14.7-8.5-1.7-6.4 2.1-13 8.5-14.7zm.8 2.9c-4.8 1.3-7.6 6.2-6.4 11 1.3 4.8 6.2 7.6 11 6.4 4.8-1.3 7.6-6.2 6.4-11-1.3-4.9-6.2-7.7-11-6.4z"/><path id="Fill-267" class="st0" d="M204.7 258.2c4.3-8.8 2.4-21-10.5-27.3l18.4-5.4c-7.4 12.2-2.4 23.5 6 28.6l-3.6 1.1c-.9-.2-1.9-.2-3 0-1.5.3-2.8 1-3.8 2l-3.5 1"/><path id="Fill-268" class="st4" d="M264.4 205.5c-15.9-7.2-45.1 5.5-51 18.5l-2.4-5.9c0-.7-.1-1.4-.2-2.1-.4-2.1-1.4-3.9-2.7-5.3l-2.4-5.9c13.3 5.4 43.2-5.6 49.7-21.7l3.1 7.8c0 .4.1.8.2 1.3.4 2.1 1.3 3.9 2.5 5.5l3.2 7.8"/><path id="Fill-269" class="st4" d="M197.6 204.1c7.7-1.5 15.3 3.5 16.8 11.3 1.5 7.7-3.5 15.3-11.3 16.8-7.7 1.5-15.3-3.5-16.8-11.3-1.5-7.8 3.6-15.3 11.3-16.8zm.7 3.5c-5.8 1.1-9.5 6.8-8.4 12.5 1.1 5.8 6.8 9.5 12.5 8.4 5.8-1.1 9.5-6.8 8.4-12.5-1.1-5.8-6.7-9.5-12.5-8.4z"/><path id="Fill-270" class="st2" d="M267.1 172.8c9.3-2.5 18.8 3 21.3 12.3s-3 18.8-12.3 21.3-18.8-3-21.3-12.3c-2.5-9.2 3-18.8 12.3-21.3zm1.1 4.3c-7 1.9-11.1 9-9.2 16 1.9 7 9 11.1 16 9.2 7-1.9 11.1-9 9.2-16-1.9-7-9-11.1-16-9.2z"/><path id="Fill-271" class="st2" d="M211.3 170.1c6.2-2.4 13.1.8 15.5 6.9 2.4 6.2-.8 13.1-7 15.5-6.2 2.4-13.1-.8-15.5-6.9-2.3-6.2.8-13.1 7-15.5zm1.1 2.8c-4.6 1.8-7 7-5.2 11.6 1.8 4.6 7 7 11.6 5.2 4.6-1.8 7-7 5.2-11.6-1.7-4.6-6.9-6.9-11.6-5.2z"/><path id="Fill-272" class="st1" d="M184 236.7c6.3-2 13.1 1.4 15.1 7.8 2 6.3-1.5 13.1-7.8 15.1s-13.1-1.5-15.1-7.8 1.5-13 7.8-15.1zm1 2.9c-4.7 1.5-7.3 6.6-5.8 11.3 1.5 4.7 6.6 7.3 11.3 5.8 4.7-1.5 7.3-6.6 5.8-11.3-1.5-4.7-6.6-7.3-11.3-5.8z"/><path id="Fill-273" class="st2" d="M165.9 186.5c15.4 8.2 33.5-.2 39.1-10.8l1.7 4.7c-.2 1.4 0 2.8.5 4.2.5 1.2 1.2 2.3 2.1 3.2l1.7 4.7c-11.1-4.7-30.4.2-37.2 16.3l-3.2-8.9c-.1-.9-.4-1.7-.7-2.6-.2-.7-.5-1.3-.9-1.9l-3.1-8.9"/><path id="Fill-274" class="st1" d="M174.7 206.4c-4.5 16.9 4.5 27 16.1 30.1l-4.1 2.7c-.6.1-1.2.2-1.8.4-2.2.7-3.9 2.2-5 4l-4.1 2.7c1.9-11.9-3.6-24.3-20.9-27.1l8.2-5.3c1.2-.6 2.3-1.3 3.3-2.1l8.3-5.4"/><path id="Fill-275" class="st3" d="M144.7 213.6c-11.7-13-25-11-34-3v-4.9c1-2 1.3-4.5.5-6.8-.1-.4-.3-.8-.5-1.2v-4.9c8.9 8.1 22.2 10.2 34-2.7v9.7c-.2 1.3-.2 2.6 0 3.9v9.9"/><path id="Fill-276" class="st1" d="M152.3 185.3c9.2-3 19 2.1 22 11.2 3 9.2-2.1 19-11.3 22-9.2 3-19-2.1-22-11.2-2.9-9.2 2.1-19 11.3-22zm1.4 4.1c-6.9 2.2-10.7 9.6-8.4 16.5 2.2 6.9 9.6 10.7 16.5 8.4 6.9-2.2 10.7-9.6 8.4-16.5-2.3-6.8-9.7-10.6-16.5-8.4z"/></g></g></svg>