<svg id="Layer_1" xmlns="http://www.w3.org/2000/svg" viewBox="0 0 808 311.7"><style>.st0{fill:#010101}.st1{font-family:&apos;HelveticaNeue-Light&apos;}.st2{font-size:22.1046px}.st3,.st4,.st5{fill:#c0db79;stroke:#676767;stroke-miterlimit:10}.st4,.st5{fill:#fff}.st5{fill:#b1c4e6}.st6{fill:#ba9bc9}.st7{fill:none;stroke:#989898;stroke-width:3;stroke-miterlimit:10}.st8{fill:#989898}.st10,.st9{fill:none;stroke:#cdcccc;stroke-miterlimit:10}.st10{stroke-dasharray:4.9759,4.9759}.st11,.st12,.st13{fill:#ba9bc9;stroke:#676767;stroke-miterlimit:10}.st12,.st13{fill:#3f6c33}.st13{fill:#68943f}</style><text transform="translate(380.308 41.22)"><tspan x="0" y="0" class="st0 st1 st2">create a task for</tspan><tspan x="-12.5" y="26.5" class="st0 st1 st2">each data attribute</tspan></text><path class="st3" d="M671.8 7.7h37.5V28h-37.5z"/><path class="st4" d="M709.3 7.7h37.5V28h-37.5z"/><path class="st3" d="M671.8 28h37.5v20.3h-37.5z"/><path class="st4" d="M634.3 28h37.5v20.3h-37.5z"/><path class="st3" d="M671.8 48.4h37.5v20.3h-37.5z"/><path class="st4" d="M709.3 28h37.5v20.3h-37.5zM709.3 48.4h37.5v20.3h-37.5zM634.3 7.7h37.5V28h-37.5zM746.8 68.7h37.5V89h-37.5zM746.8 48.4h37.5v20.3h-37.5zM746.8 28h37.5v20.3h-37.5zM746.8 7.7h37.5V28h-37.5zM634.3 48.4h37.5v20.3h-37.5zM709.3 68.7h37.5V89h-37.5zM634.3 68.7h37.5V89h-37.5z"/><path class="st3" d="M671.8 68.7h37.5V89h-37.5z"/><text transform="translate(333.206 270.503)" class="st0 st1 st2">create a task for each row</text><g><path class="st4" d="M671.8 223.7h37.5V244h-37.5zM709.3 223.7h37.5V244h-37.5z"/><path class="st3" d="M671.8 244.1h37.5v20.3h-37.5z"/><path class="st5" d="M634.3 244.1h37.5v20.3h-37.5z"/><path class="st4" d="M671.8 264.4h37.5v20.3h-37.5z"/><path class="st3" d="M709.3 244.1h37.5v20.3h-37.5z"/><path class="st4" d="M709.3 264.4h37.5v20.3h-37.5z"/><path class="st5" d="M634.3 223.7h37.5V244h-37.5z"/><path class="st4" d="M746.8 284.7h37.5V305h-37.5zM746.8 264.4h37.5v20.3h-37.5z"/><path class="st3" d="M746.8 244.1h37.5v20.3h-37.5z"/><path class="st4" d="M746.8 223.7h37.5V244h-37.5z"/><path class="st5" d="M634.3 264.4h37.5v20.3h-37.5z"/><path class="st4" d="M709.3 284.7h37.5V305h-37.5z"/><path class="st5" d="M634.3 284.7h37.5V305h-37.5z"/><path class="st4" d="M671.8 284.7h37.5V305h-37.5z"/></g><g><path class="st6" d="M166.8 48.4h143.5"/><path class="st7" d="M166.8 48.4H307"/><path class="st8" d="M297.1 60.7l-2.1-2.2 10.9-10.1L295 38.3l2.1-2.2 13.2 12.3z"/></g><g><path class="st6" d="M166.8 264.4h43.6"/><path class="st7" d="M166.8 264.4h40.4"/><path class="st8" d="M197.2 276.7l-2-2.2 10.8-10.1-10.8-10.1 2-2.2 13.2 12.3z"/></g><g><path class="st6" d="M264.7 264.4h45.6"/><path class="st7" d="M264.7 264.4H307"/><path class="st8" d="M297.1 276.7l-2.1-2.2 10.9-10.1-10.9-10.1 2.1-2.2 13.2 12.3z"/></g><g><path class="st9" d="M0 96.5h2.5"/><path class="st10" d="M7.5 96.5h793.6"/><path class="st9" d="M803.6 96.5h2.5"/></g><g><path class="st9" d="M0 217.4h2.5"/><path class="st10" d="M7.5 217.4h793.6"/><path class="st9" d="M803.6 217.4h2.5"/></g><g><path class="st11" d="M94.5 293.5v-6.8h8.3V242h-8.3v-6.7h28.8c5.2 0 9.7.7 13.5 2.2 3.8 1.5 7 3.5 9.5 6.1 2.5 2.6 4.4 5.6 5.7 9.1 1.2 3.5 1.9 7.3 1.9 11.3 0 4.5-.6 8.6-1.9 12.3-1.3 3.6-3.2 6.7-5.7 9.3-2.6 2.5-5.7 4.5-9.6 5.9-3.8 1.4-8.3 2.1-13.4 2.1H94.5zm18.7-6.8h9.1c3.7 0 6.9-.6 9.6-1.7 2.6-1.1 4.8-2.7 6.4-4.7 1.6-2 2.8-4.4 3.6-7.1.7-2.7 1.1-5.7 1.1-9 0-3.2-.4-6.2-1.1-8.9-.8-2.7-2-5.1-3.6-7.1s-3.7-3.6-6.3-4.7c-2.6-1.1-5.7-1.7-9.3-1.7h-9.4v44.9z"/><path class="st5" d="M224.5 293.5v-6.8h7.4V242h-7.4v-6.7h25.2v6.7h-7.4v44.7h7.4v6.8h-25.2z"/></g><g><text transform="translate(322.774 135.02)"><tspan x="0" y="0" class="st0 st1 st2">create a task where workers</tspan><tspan x="19.7" y="26.5" class="st0 st1 st2">iteratively enter as much</tspan><tspan x="74.1" y="53.1" class="st0 st1 st2">as they want</tspan></text><path class="st12" d="M671.8 115.2h37.5v20.3h-37.5z"/><path class="st3" d="M709.3 115.2h37.5v20.3h-37.5z"/><path class="st12" d="M671.8 135.5h37.5v20.3h-37.5z"/><path class="st3" d="M634.3 135.5h37.5v20.3h-37.5z"/><path class="st12" d="M671.8 155.9h37.5v20.3h-37.5zM709.3 135.5h37.5v20.3h-37.5z"/><path class="st3" d="M709.3 155.9h37.5v20.3h-37.5zM634.3 115.2h37.5v20.3h-37.5zM746.8 176.2h37.5v20.3h-37.5z"/><path class="st12" d="M746.8 155.9h37.5v20.3h-37.5zM746.8 135.5h37.5v20.3h-37.5z"/><path class="st13" d="M746.8 115.2h37.5v20.3h-37.5zM634.3 155.9h37.5v20.3h-37.5zM709.3 176.2h37.5v20.3h-37.5z"/><path class="st13" d="M634.3 176.2h37.5v20.3h-37.5z"/><path class="st3" d="M671.8 176.2h37.5v20.3h-37.5z"/><g><path class="st6" d="M166.8 155.8h143.5"/><path class="st7" d="M166.8 155.8H307"/><path class="st8" d="M297.1 168.1l-2.1-2.2 10.9-10.1-10.9-10.1 2.1-2.2 13.2 12.3z"/></g><g><path class="st11" d="M94.5 186.1v-6.8h8.3v-44.7h-8.3v-6.7h28.8c5.2 0 9.7.7 13.5 2.2 3.8 1.5 7 3.5 9.5 6.1 2.5 2.6 4.4 5.6 5.7 9.1 1.2 3.5 1.9 7.3 1.9 11.3 0 4.5-.6 8.6-1.9 12.3-1.3 3.6-3.2 6.7-5.7 9.3-2.6 2.5-5.7 4.5-9.6 5.9-3.8 1.4-8.3 2.1-13.4 2.1H94.5zm18.7-6.8h9.1c3.7 0 6.9-.6 9.6-1.7 2.6-1.1 4.8-2.7 6.4-4.7 1.6-2 2.8-4.4 3.6-7.1.7-2.7 1.1-5.7 1.1-9 0-3.2-.4-6.2-1.1-8.9-.8-2.7-2-5.1-3.6-7.1s-3.7-3.6-6.3-4.7c-2.6-1.1-5.7-1.7-9.3-1.7h-9.4v44.9z"/></g></g><g><path class="st11" d="M95 77.5v-6.8h8.3V26H95v-6.7h28.8c5.2 0 9.7.7 13.5 2.2 3.8 1.5 7 3.5 9.5 6.1 2.5 2.6 4.4 5.6 5.7 9.1 1.2 3.5 1.9 7.3 1.9 11.3 0 4.5-.6 8.6-1.9 12.3-1.3 3.6-3.2 6.7-5.7 9.3-2.6 2.5-5.7 4.5-9.6 5.9-3.8 1.4-8.3 2.1-13.4 2.1H95zm18.7-6.8h9.1c3.7 0 6.9-.6 9.6-1.7 2.6-1.1 4.8-2.7 6.4-4.7 1.6-2 2.8-4.4 3.6-7.1.7-2.7 1.1-5.7 1.1-9 0-3.2-.4-6.2-1.1-8.9-.8-2.7-2-5.1-3.6-7.1s-3.7-3.6-6.3-4.7c-2.6-1.1-5.7-1.7-9.3-1.7h-9.4v44.9z"/></g></svg>