<?xml version="1.0" encoding="utf-8"?>
<!-- Generator: Adobe Illustrator 20.1.0, SVG Export Plug-In . SVG Version: 6.00 Build 0)  -->
<svg version="1.1" id="Layer_1" xmlns="http://www.w3.org/2000/svg" xmlns:xlink="http://www.w3.org/1999/xlink" x="0px" y="0px"
	 viewBox="0 0 150 150" style="enable-background:new 0 0 150 150;" xml:space="preserve">
<style type="text/css">
	.st0{fill:#333333;}
	.st1{fill:#F0E11B;}
	.st2{fill:#DAD14C;}
	.st3{fill:#C6C164;}
	.st4{fill:#B4B274;}
	.st5{fill:#A3A37F;}
	.st6{fill:#939486;}
	.st7{fill:#868586;}
	.st8{fill:#777884;}
	.st9{fill:#696A85;}
	.st10{fill:#5C5B8A;}
	.st11{fill:#963FE8;}
	.st12{fill:#9753CD;}
	.st13{fill:#9B5FBA;}
	.st14{fill:#A068AB;}
	.st15{fill:#A66E9F;}
	.st16{fill:#AD7495;}
	.st17{fill:#B7788A;}
	.st18{fill:#C17B7D;}
	.st19{fill:#CC7E6E;}
	.st20{fill:#D8805B;}
	.st21{fill:#0190DC;}
	.st22{fill:#2C97CB;}
	.st23{fill:#3E9DBE;}
	.st24{fill:#4AA3B4;}
	.st25{fill:#51AAAC;}
	.st26{fill:#55B1A4;}
	.st27{fill:#55B89B;}
	.st28{fill:#54C08F;}
	.st29{fill:#52C881;}
	.st30{fill:#50D06F;}
	.st31{fill:#EDEFD3;}
	.st32{fill:#EBDEC6;}
	.st33{fill:#E9CEBA;}
	.st34{fill:#E6BDAF;}
	.st35{fill:#E4ADA4;}
	.st36{fill:#E29C99;}
	.st37{fill:#E08B8E;}
	.st38{fill:#DE7A84;}
	.st39{fill:#DC677A;}
	.st40{fill:#DA5270;}
</style>
<rect class="st0" width="150" height="150"/>
<g>
	<g>
		<rect x="15.9" y="62.3" class="st1" width="12.6" height="12"/>
		<rect x="27.8" y="62.3" class="st2" width="12.6" height="12"/>
		<rect x="39.8" y="62.3" class="st3" width="12.6" height="12"/>
		<rect x="51.9" y="62.3" class="st4" width="12.6" height="12"/>
		<rect x="63.9" y="62.3" class="st5" width="12.6" height="12"/>
		<rect x="75.8" y="62.3" class="st6" width="12.6" height="12"/>
		<rect x="87.9" y="62.3" class="st7" width="12.6" height="12"/>
		<rect x="99.9" y="62.3" class="st8" width="12.6" height="12"/>
		<rect x="111.8" y="62.3" class="st9" width="12.6" height="12"/>
		<rect x="123.9" y="62.3" class="st10" width="12" height="12"/>
	</g>
	<g>
		<rect x="15.9" y="76.6" class="st11" width="12.6" height="12"/>
		<rect x="27.8" y="76.6" class="st12" width="12.6" height="12"/>
		<rect x="39.8" y="76.6" class="st13" width="12.6" height="12"/>
		<rect x="51.9" y="76.6" class="st14" width="12.6" height="12"/>
		<rect x="63.9" y="76.6" class="st15" width="12.6" height="12"/>
		<rect x="75.8" y="76.6" class="st16" width="12.6" height="12"/>
		<rect x="87.9" y="76.6" class="st17" width="12.6" height="12"/>
		<rect x="99.9" y="76.6" class="st18" width="12.6" height="12"/>
		<rect x="111.8" y="76.6" class="st19" width="12.6" height="12"/>
		<rect x="123.9" y="76.6" class="st20" width="12" height="12"/>
	</g>
	<g>
		<rect x="15.9" y="48" class="st21" width="12.6" height="12"/>
		<rect x="27.8" y="48" class="st22" width="12.6" height="12"/>
		<rect x="39.8" y="48" class="st23" width="12.6" height="12"/>
		<rect x="51.9" y="48" class="st24" width="12.6" height="12"/>
		<rect x="63.9" y="48" class="st25" width="12.6" height="12"/>
		<rect x="75.8" y="48" class="st26" width="12.6" height="12"/>
		<rect x="87.9" y="48" class="st27" width="12.6" height="12"/>
		<rect x="99.9" y="48" class="st28" width="12.6" height="12"/>
		<rect x="111.8" y="48" class="st29" width="12.6" height="12"/>
		<rect x="123.9" y="48" class="st30" width="12" height="12"/>
	</g>
	<g>
		<rect x="15.9" y="91" class="st31" width="12.6" height="12"/>
		<rect x="27.8" y="91" class="st32" width="12.6" height="12"/>
		<rect x="39.8" y="91" class="st33" width="12.6" height="12"/>
		<rect x="51.9" y="91" class="st34" width="12.6" height="12"/>
		<rect x="63.9" y="91" class="st35" width="12.6" height="12"/>
		<rect x="75.8" y="91" class="st36" width="12.6" height="12"/>
		<rect x="87.9" y="91" class="st37" width="12.6" height="12"/>
		<rect x="99.9" y="91" class="st38" width="12.6" height="12"/>
		<rect x="111.8" y="91" class="st39" width="12.6" height="12"/>
		<rect x="123.9" y="91" class="st40" width="12" height="12"/>
	</g>
</g>
</svg>
