<svg id="Layer_1" xmlns="http://www.w3.org/2000/svg" viewBox="0 0 150 150"><style>.st0{fill:#333}.st1{fill:#f0e11b}.st2{fill:#dad14c}.st3{fill:#c6c164}.st4{fill:#b4b274}.st5{fill:#a3a37f}.st6{fill:#939486}.st7{fill:#868586}.st8{fill:#777884}.st9{fill:#696a85}.st10{fill:#5c5b8a}.st11{fill:#963fe8}.st12{fill:#9753cd}.st13{fill:#9b5fba}.st14{fill:#a068ab}.st15{fill:#a66e9f}.st16{fill:#ad7495}.st17{fill:#b7788a}.st18{fill:#c17b7d}.st19{fill:#cc7e6e}.st20{fill:#d8805b}.st21{fill:#0190dc}.st22{fill:#2c97cb}.st23{fill:#3e9dbe}.st24{fill:#4aa3b4}.st25{fill:#51aaac}.st26{fill:#55b1a4}.st27{fill:#55b89b}.st28{fill:#54c08f}.st29{fill:#52c881}.st30{fill:#50d06f}.st31{fill:#edefd3}.st32{fill:#ebdec6}.st33{fill:#e9ceba}.st34{fill:#e6bdaf}.st35{fill:#e4ada4}.st36{fill:#e29c99}.st37{fill:#e08b8e}.st38{fill:#de7a84}.st39{fill:#dc677a}.st40{fill:#da5270}</style><path class="st0" d="M0 0h150v150H0z"/><path class="st1" d="M15.9 62.3h12.6v12H15.9z"/><path class="st2" d="M27.8 62.3h12.6v12H27.8z"/><path class="st3" d="M39.8 62.3h12.6v12H39.8z"/><path class="st4" d="M51.9 62.3h12.6v12H51.9z"/><path class="st5" d="M63.9 62.3h12.6v12H63.9z"/><path class="st6" d="M75.8 62.3h12.6v12H75.8z"/><path class="st7" d="M87.9 62.3h12.6v12H87.9z"/><path class="st8" d="M99.9 62.3h12.6v12H99.9z"/><path class="st9" d="M111.8 62.3h12.6v12h-12.6z"/><path class="st10" d="M123.9 62.3h12v12h-12z"/><g><path class="st11" d="M15.9 76.6h12.6v12H15.9z"/><path class="st12" d="M27.8 76.6h12.6v12H27.8z"/><path class="st13" d="M39.8 76.6h12.6v12H39.8z"/><path class="st14" d="M51.9 76.6h12.6v12H51.9z"/><path class="st15" d="M63.9 76.6h12.6v12H63.9z"/><path class="st16" d="M75.8 76.6h12.6v12H75.8z"/><path class="st17" d="M87.9 76.6h12.6v12H87.9z"/><path class="st18" d="M99.9 76.6h12.6v12H99.9z"/><path class="st19" d="M111.8 76.6h12.6v12h-12.6z"/><path class="st20" d="M123.9 76.6h12v12h-12z"/></g><g><path class="st21" d="M15.9 48h12.6v12H15.9z"/><path class="st22" d="M27.8 48h12.6v12H27.8z"/><path class="st23" d="M39.8 48h12.6v12H39.8z"/><path class="st24" d="M51.9 48h12.6v12H51.9z"/><path class="st25" d="M63.9 48h12.6v12H63.9z"/><path class="st26" d="M75.8 48h12.6v12H75.8z"/><path class="st27" d="M87.9 48h12.6v12H87.9z"/><path class="st28" d="M99.9 48h12.6v12H99.9z"/><path class="st29" d="M111.8 48h12.6v12h-12.6z"/><path class="st30" d="M123.9 48h12v12h-12z"/></g><g><path class="st31" d="M15.9 91h12.6v12H15.9z"/><path class="st32" d="M27.8 91h12.6v12H27.8z"/><path class="st33" d="M39.8 91h12.6v12H39.8z"/><path class="st34" d="M51.9 91h12.6v12H51.9z"/><path class="st35" d="M63.9 91h12.6v12H63.9z"/><path class="st36" d="M75.8 91h12.6v12H75.8z"/><path class="st37" d="M87.9 91h12.6v12H87.9z"/><path class="st38" d="M99.9 91h12.6v12H99.9z"/><path class="st39" d="M111.8 91h12.6v12h-12.6z"/><path class="st40" d="M123.9 91h12v12h-12z"/></g></svg>