<svg xmlns="http://www.w3.org/2000/svg" width="200" height="200" viewBox="0 0 200 200"><path fill="#2C7ABA" d="M155.338 0h22.19v20h-22.19z"><title>x: TCGA-FD-A3B5 y: STAG2 value: -0.73</title></path><path fill="#093A79" d="M177.528 0h22.191v20h-22.191z"><title>x: TCGA-H4-A2HQ y: STAG2 value: 1.07</title></path><path fill="#1C68AE" d="M88.764 0h22.191v20H88.764z"><title>x: TCGA-DK-A1AA y: STAG2 value: -0.22</title></path><path fill="#0F57A1" d="M110.955 0h22.191v20h-22.191z"><title>x: TCGA-DK-A1AF y: STAG2 value: 0.26</title></path><path fill="#08509B" d="M66.573 0h22.191v20H66.573z"><title>x: TCGA-CF-A3MI y: STAG2 value: 0.46</title></path><path fill="#1D6AB0" d="M22.191 0h22.191v20H22.191z"><title>x: TCGA-FD-A3NA y: STAG2 value: -0.28</title></path><path fill="#2070B4" d="M0 0h22.191v20H0z"><title>x: TCGA-BL-A13J y: STAG2 value: -0.44</title></path><path fill="#115AA3" d="M133.146 0h22.191v20h-22.191z"><title>x: TCGA-DK-A3IS y: STAG2 value: 0.19</title></path><path fill="#0E56A0" d="M44.382 0h22.191v20H44.382z"><title>x: TCGA-CF-A27C y: STAG2 value: 0.29</title></path><path fill="#2A79B9" d="M155.338 20h22.19v20h-22.19z"><title>x: TCGA-FD-A3B5 y: SMC1A value: -0.683757</title></path><path fill="#084E97" d="M177.528 20h22.191v20h-22.191z"><title>x: TCGA-H4-A2HQ y: SMC1A value: 0.526243</title></path><path fill="#3583BE" d="M88.764 20h22.191v20H88.764z"><title>x: TCGA-DK-A1AA y: SMC1A value: -0.973757</title></path><path fill="#1058A2" d="M110.955 20h22.191v20h-22.191z"><title>x: TCGA-DK-A1AF y: SMC1A value: 0.226243</title></path><path fill="#08519B" d="M66.573 20h22.191v20H66.573z"><title>x: TCGA-CF-A3MI y: SMC1A value: 0.446243</title></path><path fill="#125BA4" d="M22.191 20h22.191v20H22.191z"><title>x: TCGA-FD-A3NA y: SMC1A value: 0.156243</title></path><path fill="#1E6CB2" d="M0 20h22.191v20H0z"><title>x: TCGA-BL-A13J y: SMC1A value: -0.343757</title></path><path fill="#145DA5" d="M133.146 20h22.191v20h-22.191z"><title>x: TCGA-DK-A3IS y: SMC1A value: 0.106243</title></path><path fill="#1B67AE" d="M44.382 20h22.191v20H44.382z"><title>x: TCGA-CF-A27C y: SMC1A value: -0.203757</title></path><path fill="#579FCE" d="M155.338 40h22.19v20h-22.19z"><title>x: TCGA-FD-A3B5 y: STAG1 value: -1.805908</title></path><path fill="#115AA3" d="M177.528 40h22.191v20h-22.191z"><title>x: TCGA-H4-A2HQ y: STAG1 value: 0.184092</title></path><path fill="#4191C6" d="M88.764 40h22.191v20H88.764z"><title>x: TCGA-DK-A1AA y: STAG1 value: -1.355908</title></path><path fill="#084B93" d="M110.955 40h22.191v20h-22.191z"><title>x: TCGA-DK-A1AF y: STAG1 value: 0.604092</title></path><path fill="#094990" d="M66.573 40h22.191v20H66.573z"><title>x: TCGA-CF-A3MI y: STAG1 value: 0.654092</title></path><path fill="#0F57A1" d="M22.191 40h22.191v20H22.191z"><title>x: TCGA-FD-A3NA y: STAG1 value: 0.254092</title></path><path fill="#0A529D" d="M0 40h22.191v20H0z"><title>x: TCGA-BL-A13J y: STAG1 value: 0.394092</title></path><path fill="#155EA6" d="M133.146 40h22.191v20h-22.191z"><title>x: TCGA-DK-A3IS y: STAG1 value: 0.074092</title></path><path fill="#1B67AD" d="M44.382 40h22.191v20H44.382z"><title>x: TCGA-CF-A27C y: STAG1 value: -0.185908</title></path><path fill="#2C7ABA" d="M155.338 60h22.19v20h-22.19z"><title>x: TCGA-FD-A3B5 y: SMC3 value: -0.72295</title></path><path fill="#1A65AC" d="M177.528 60h22.191v20h-22.191z"><title>x: TCGA-H4-A2HQ y: SMC3 value: -0.13295</title></path><path fill="#3482BE" d="M88.764 60h22.191v20H88.764z"><title>x: TCGA-DK-A1AA y: SMC3 value: -0.93295</title></path><path fill="#093A7A" d="M110.955 60h22.191v20h-22.191z"><title>x: TCGA-DK-A1AF y: SMC3 value: 1.06705</title></path><path fill="#08509A" d="M66.573 60h22.191v20H66.573z"><title>x: TCGA-CF-A3MI y: SMC3 value: 0.46705</title></path><path fill="#084C95" d="M22.191 60h22.191v20H22.191z"><title>x: TCGA-FD-A3NA y: SMC3 value: 0.56705</title></path><path fill="#1963AA" d="M0 60h22.191v20H0z"><title>x: TCGA-BL-A13J y: SMC3 value: -0.08295</title></path><path fill="#09468C" d="M133.146 60h22.191v20h-22.191z"><title>x: TCGA-DK-A3IS y: SMC3 value: 0.72705</title></path><path fill="#2070B4" d="M44.382 60h22.191v20H44.382z"><title>x: TCGA-CF-A27C y: SMC3 value: -0.44295</title></path><path fill="#3D8CC3" d="M155.338 80h22.19v20h-22.19z"><title>x: TCGA-FD-A3B5 y: RAD21 value: -1.21</title></path><path fill="#094083" d="M177.528 80h22.191v20h-22.191z"><title>x: TCGA-H4-A2HQ y: RAD21 value: 0.9</title></path><path fill="#2877B8" d="M88.764 80h22.191v20H88.764z"><title>x: TCGA-DK-A1AA y: RAD21 value: -0.63</title></path><path fill="#094184" d="M110.955 80h22.191v20h-22.191z"><title>x: TCGA-DK-A1AF y: RAD21 value: 0.88</title></path><path fill="#1E6CB1" d="M66.573 80h22.191v20H66.573z"><title>x: TCGA-CF-A3MI y: RAD21 value: -0.34</title></path><path fill="#1761A9" d="M22.191 80h22.191v20H22.191z"><title>x: TCGA-FD-A3NA y: RAD21 value: -0.03</title></path><path fill="#0C549E" d="M0 80h22.191v20H0z"><title>x: TCGA-BL-A13J y: RAD21 value: 0.35</title></path><path fill="#094489" d="M133.146 80h22.191v20h-22.191z"><title>x: TCGA-DK-A3IS y: RAD21 value: 0.78</title></path><path fill="#084D96" d="M44.382 80h22.191v20H44.382z"><title>x: TCGA-CF-A27C y: RAD21 value: 0.54</title></path><path fill="#0C549F" d="M44.662 100h22.191v20H44.662z"><title>x: TCGA-A7-A0CH y: STAG2 value: 0.34</title></path><path fill="#145DA6" d="M155.617 100h22.191v20h-22.191z"><title>x: TCGA-B6-A0I9 y: STAG2 value: 0.09</title></path><path fill="#1963AA" d="M177.809 100H200v20h-22.191z"><title>x: TCGA-E2-A1B4 y: STAG2 value: -0.08</title></path><path fill="#0C549E" d="M.28 100h22.191v20H.28z"><title>x: TCGA-E9-A1R0 y: STAG2 value: 0.35</title></path><path fill="#09529D" d="M22.472 100h22.19v20h-22.19z"><title>x: TCGA-A2-A0SX y: STAG2 value: 0.41</title></path><path fill="#0B539E" d="M44.662 120h22.191v20H44.662z"><title>x: TCGA-A7-A0CH y: SMC1A value: 0.376243</title></path><path fill="#093B7C" d="M155.617 120h22.191v20h-22.191z"><title>x: TCGA-B6-A0I9 y: SMC1A value: 1.026243</title></path><path fill="#093F82" d="M177.809 120H200v20h-22.191z"><title>x: TCGA-E2-A1B4 y: SMC1A value: 0.916243</title></path><path fill="#08509A" d="M.28 120h22.191v20H.28z"><title>x: TCGA-E9-A1R0 y: SMC1A value: 0.476243</title></path><path fill="#094489" d="M22.472 120h22.19v20h-22.19z"><title>x: TCGA-A2-A0SX y: SMC1A value: 0.786243</title></path><path fill="#093D7F" d="M44.662 140h22.191v20H44.662z"><title>x: TCGA-A7-A0CH y: STAG1 value: 0.974092</title></path><path fill="#1C69AF" d="M155.617 140h22.191v20h-22.191z"><title>x: TCGA-B6-A0I9 y: STAG1 value: -0.235908</title></path><path fill="#3684BF" d="M177.809 140H200v20h-22.191z"><title>x: TCGA-E2-A1B4 y: STAG1 value: -0.995908</title></path><path fill="#084C95" d="M.28 140h22.191v20H.28z"><title>x: TCGA-E9-A1R0 y: STAG1 value: 0.564092</title></path><path fill="#08509A" d="M22.472 140h22.19v20h-22.19z"><title>x: TCGA-A2-A0SX y: STAG1 value: 0.474092</title></path><path fill="#165FA7" d="M44.662 160h22.191v20H44.662z"><title>x: TCGA-A7-A0CH y: SMC3 value: 0.03705</title></path><path fill="#165FA7" d="M155.617 160h22.191v20h-22.191z"><title>x: TCGA-B6-A0I9 y: SMC3 value: 0.03705</title></path><path fill="#2070B4" d="M177.809 160H200v20h-22.191z"><title>x: TCGA-E2-A1B4 y: SMC3 value: -0.44295</title></path><path fill="#09488F" d="M.28 160h22.191v20H.28z"><title>x: TCGA-E9-A1R0 y: SMC3 value: 0.66705</title></path><path fill="#08336F" d="M22.472 160h22.19v20h-22.19z"><title>x: TCGA-A2-A0SX y: SMC3 value: 1.26705</title></path><path fill="#1E6CB1" d="M44.662 180h22.191v20H44.662z"><title>x: TCGA-A7-A0CH y: RAD21 value: -0.32</title></path><path fill="#09488E" d="M155.617 180h22.191v20h-22.191z"><title>x: TCGA-B6-A0I9 y: RAD21 value: 0.69</title></path><path fill="#072A62" d="M177.809 180H200v20h-22.191z"><title>x: TCGA-E2-A1B4 y: RAD21 value: 1.52</title></path><path fill="#1B67AD" d="M.28 180h22.191v20H.28z"><title>x: TCGA-E9-A1R0 y: RAD21 value: -0.18</title></path><path fill="#08316D" d="M22.472 180h22.19v20h-22.19z"><title>x: TCGA-A2-A0SX y: RAD21 value: 1.31</title></path><path fill="#094083" d="M111.236 100h22.19v20h-22.19z"><title>x: TCGA-AA-3821 y: STAG2 value: 0.898818</title></path><path fill="#1A66AC" d="M66.854 100h22.191v20H66.854z"><title>x: TCGA-A6-2678 y: STAG2 value: -0.151182</title></path><path fill="#0E56A0" d="M133.427 100h22.19v20h-22.19z"><title>x: TCGA-AA-3555 y: STAG2 value: 0.278818</title></path><path fill="#0A529D" d="M89.045 100h22.191v20H89.045z"><title>x: TCGA-AG-4001 y: STAG2 value: 0.398818</title></path><path fill="#155EA6" d="M111.236 120h22.19v20h-22.19z"><title>x: TCGA-AA-3821 y: SMC1A value: 0.06</title></path><path fill="#155EA6" d="M66.854 120h22.191v20H66.854z"><title>x: TCGA-A6-2678 y: SMC1A value: 0.06</title></path><path fill="#084F9A" d="M133.427 120h22.19v20h-22.19z"><title>x: TCGA-AA-3555 y: SMC1A value: 0.48</title></path><path fill="#1660A8" d="M89.045 120h22.191v20H89.045z"><title>x: TCGA-AG-4001 y: SMC1A value: 0.01</title></path><path fill="#1F6EB3" d="M111.236 140h22.19v20h-22.19z"><title>x: TCGA-AA-3821 y: STAG1 value: -0.38</title></path><path fill="#3685BF" d="M66.854 140h22.191v20H66.854z"><title>x: TCGA-A6-2678 y: STAG1 value: -1.01</title></path><path fill="#2170B4" d="M133.427 140h22.19v20h-22.19z"><title>x: TCGA-AA-3555 y: STAG1 value: -0.45</title></path><path fill="#0B549E" d="M89.045 140h22.191v20H89.045z"><title>x: TCGA-AG-4001 y: STAG1 value: 0.36</title></path><path fill="#0E56A0" d="M111.236 160h22.19v20h-22.19z"><title>x: TCGA-AA-3821 y: SMC3 value: 0.28</title></path><path fill="#2675B7" d="M66.854 160h22.191v20H66.854z"><title>x: TCGA-A6-2678 y: SMC3 value: -0.58</title></path><path fill="#1F6EB3" d="M133.427 160h22.19v20h-22.19z"><title>x: TCGA-AA-3555 y: SMC3 value: -0.38</title></path><path fill="#084E98" d="M89.045 160h22.191v20H89.045z"><title>x: TCGA-AG-4001 y: SMC3 value: 0.51</title></path><path fill="#09488E" d="M111.236 180h22.19v20h-22.19z"><title>x: TCGA-AA-3821 y: RAD21 value: 0.688974</title></path><path fill="#135CA5" d="M66.854 180h22.191v20H66.854z"><title>x: TCGA-A6-2678 y: RAD21 value: 0.118974</title></path><path fill="#2272B5" d="M133.427 180h22.19v20h-22.19z"><title>x: TCGA-AA-3555 y: RAD21 value: -0.491026</title></path><path fill="#083572" d="M89.045 180h22.191v20H89.045z"><title>x: TCGA-AG-4001 y: RAD21 value: 1.208974</title></path></svg>