<?xml version="1.0" encoding="utf-8"?>
<!-- Generator: Adobe Illustrator 20.1.0, SVG Export Plug-In . SVG Version: 6.00 Build 0)  -->
<svg version="1.1" id="Layer_1" xmlns="http://www.w3.org/2000/svg" xmlns:xlink="http://www.w3.org/1999/xlink" x="0px" y="0px"
	 viewBox="0 0 150 150" style="enable-background:new 0 0 150 150;" xml:space="preserve">
<style type="text/css">
	.st0{fill:#07659C;}
	.st1{fill:#F04D4C;}
	.st2{fill:#15582D;}
	.st3{fill:#F0CE3C;}
	.st4{fill:#AF7BB5;}
	.st5{fill:none;stroke:#939598;stroke-width:0.378;}
</style>
<g>
	<rect x="6.1" y="6.1" class="st0" width="11.2" height="11.2"/>
	<rect x="20.1" y="6.1" class="st1" width="11.2" height="11.2"/>
	<rect x="34.2" y="6.1" class="st0" width="11.2" height="11.2"/>
	<rect x="48.2" y="6.1" class="st2" width="11.2" height="11.2"/>
	<rect x="62.4" y="6.1" class="st2" width="11.2" height="11.2"/>
	<rect x="76.4" y="6.1" class="st3" width="11.2" height="11.2"/>
	<rect x="90.4" y="6.1" class="st0" width="11.2" height="11.2"/>
	<rect x="104.4" y="6.1" class="st1" width="11.2" height="11.2"/>
	<rect x="118.5" y="6.1" class="st0" width="11.2" height="11.2"/>
	<rect x="132.7" y="6.1" class="st0" width="11.2" height="11.2"/>
	<rect x="6.1" y="20.3" class="st0" width="11.2" height="11.2"/>
	<rect x="20.1" y="20.3" class="st3" width="11.2" height="11.2"/>
	<rect x="34.2" y="20.3" class="st0" width="11.2" height="11.2"/>
	<rect x="48.2" y="20.3" class="st2" width="11.2" height="11.2"/>
	<rect x="62.4" y="20.3" class="st1" width="11.2" height="11.2"/>
	<rect x="76.4" y="20.3" class="st3" width="11.2" height="11.2"/>
	<rect x="90.4" y="20.3" class="st3" width="11.2" height="11.2"/>
	<rect x="104.4" y="20.3" class="st2" width="11.2" height="11.2"/>
	<rect x="118.5" y="20.3" class="st1" width="11.2" height="11.2"/>
	<rect x="132.7" y="20.3" class="st1" width="11.2" height="11.2"/>
	<rect x="6.1" y="34.3" class="st0" width="11.2" height="11.2"/>
	<rect x="20.1" y="34.3" class="st2" width="11.2" height="11.2"/>
	<rect x="34.2" y="34.3" class="st3" width="11.2" height="11.2"/>
	<rect x="48.2" y="34.3" class="st1" width="11.2" height="11.2"/>
	<rect x="62.4" y="34.3" class="st0" width="11.2" height="11.2"/>
	<rect x="76.4" y="34.3" class="st3" width="11.2" height="11.2"/>
	<rect x="90.4" y="34.3" class="st2" width="11.2" height="11.2"/>
	<rect x="104.4" y="34.3" class="st2" width="11.2" height="11.2"/>
	<rect x="118.5" y="34.3" class="st0" width="11.2" height="11.2"/>
	<rect x="132.7" y="34.3" class="st2" width="11.2" height="11.2"/>
	<rect x="6.1" y="48.4" class="st1" width="11.2" height="11.2"/>
	<rect x="20.1" y="48.4" class="st1" width="11.2" height="11.2"/>
	<rect x="34.2" y="48.4" class="st1" width="11.2" height="11.2"/>
	<rect x="48.2" y="48.4" class="st1" width="11.2" height="11.2"/>
	<rect x="62.4" y="48.4" class="st0" width="11.2" height="11.2"/>
	<rect x="76.4" y="48.4" class="st2" width="11.2" height="11.2"/>
	<rect x="90.4" y="48.4" class="st1" width="11.2" height="11.2"/>
	<rect x="104.4" y="48.4" class="st2" width="11.2" height="11.2"/>
	<rect x="118.5" y="48.4" class="st3" width="11.2" height="11.2"/>
	<rect x="132.7" y="48.4" class="st2" width="11.2" height="11.2"/>
	<rect x="6.1" y="62.4" class="st2" width="11.2" height="11.2"/>
	<rect x="20.1" y="62.4" class="st0" width="11.2" height="11.2"/>
	<rect x="34.2" y="62.4" class="st1" width="11.2" height="11.2"/>
	<rect x="48.2" y="62.4" class="st3" width="11.2" height="11.2"/>
	<rect x="62.4" y="62.4" class="st0" width="11.2" height="11.2"/>
	<rect x="76.4" y="62.4" class="st3" width="11.2" height="11.2"/>
	<rect x="90.4" y="62.4" class="st3" width="11.2" height="11.2"/>
	<rect x="104.4" y="62.4" class="st1" width="11.2" height="11.2"/>
	<rect x="118.5" y="62.4" class="st2" width="11.2" height="11.2"/>
	<rect x="132.7" y="62.4" class="st0" width="11.2" height="11.2"/>
	<rect x="6.1" y="76.4" class="st0" width="11.2" height="11.2"/>
	<rect x="20.1" y="76.4" class="st2" width="11.2" height="11.2"/>
	<rect x="34.2" y="76.4" class="st2" width="11.2" height="11.2"/>
	<rect x="48.2" y="76.4" class="st2" width="11.2" height="11.2"/>
	<rect x="62.4" y="76.4" class="st1" width="11.2" height="11.2"/>
	<rect x="76.4" y="76.4" class="st1" width="11.2" height="11.2"/>
	<rect x="90.4" y="76.4" class="st3" width="11.2" height="11.2"/>
	<rect x="104.4" y="76.4" class="st3" width="11.2" height="11.2"/>
	<rect x="118.5" y="76.4" class="st0" width="11.2" height="11.2"/>
	<rect x="132.7" y="76.4" class="st1" width="11.2" height="11.2"/>
	<rect x="6.1" y="90.6" class="st3" width="11.2" height="11.2"/>
	<rect x="20.1" y="90.6" class="st3" width="11.2" height="11.2"/>
	<rect x="34.2" y="90.6" class="st2" width="11.2" height="11.2"/>
	<rect x="48.2" y="90.6" class="st3" width="11.2" height="11.2"/>
	<rect x="62.4" y="90.6" class="st3" width="11.2" height="11.2"/>
	<rect x="76.4" y="90.6" class="st0" width="11.2" height="11.2"/>
	<rect x="90.4" y="90.6" class="st1" width="11.2" height="11.2"/>
	<rect x="104.4" y="90.6" class="st2" width="11.2" height="11.2"/>
	<rect x="118.5" y="90.6" class="st2" width="11.2" height="11.2"/>
	<rect x="132.7" y="90.6" class="st3" width="11.2" height="11.2"/>
	<rect x="6.1" y="104.6" class="st0" width="11.2" height="11.2"/>
	<rect x="20.1" y="104.6" class="st1" width="11.2" height="11.2"/>
	<rect x="34.2" y="104.6" class="st2" width="11.2" height="11.2"/>
	<rect x="48.2" y="104.6" class="st2" width="11.2" height="11.2"/>
	<rect x="62.4" y="104.6" class="st1" width="11.2" height="11.2"/>
	<rect x="76.4" y="104.6" class="st2" width="11.2" height="11.2"/>
	<rect x="90.4" y="104.6" class="st1" width="11.2" height="11.2"/>
	<rect x="104.4" y="104.6" class="st3" width="11.2" height="11.2"/>
	<rect x="118.5" y="104.6" class="st1" width="11.2" height="11.2"/>
	<rect x="132.7" y="104.6" class="st0" width="11.2" height="11.2"/>
	<rect x="6.1" y="118.6" class="st1" width="11.2" height="11.2"/>
	<rect x="20.1" y="118.6" class="st3" width="11.2" height="11.2"/>
	<rect x="34.2" y="118.6" class="st3" width="11.2" height="11.2"/>
	<rect x="48.2" y="118.6" class="st0" width="11.2" height="11.2"/>
	<rect x="62.4" y="118.6" class="st3" width="11.2" height="11.2"/>
	<rect x="76.4" y="118.6" class="st0" width="11.2" height="11.2"/>
	<rect x="90.4" y="118.6" class="st2" width="11.2" height="11.2"/>
	<rect x="104.4" y="118.6" class="st0" width="11.2" height="11.2"/>
	<rect x="118.5" y="118.6" class="st4" width="11.2" height="11.2"/>
	<rect x="132.7" y="118.6" class="st1" width="11.2" height="11.2"/>
	<rect x="6.1" y="132.7" class="st0" width="11.2" height="11.2"/>
	<rect x="20.1" y="132.7" class="st3" width="11.2" height="11.2"/>
	<rect x="34.2" y="132.7" class="st0" width="11.2" height="11.2"/>
	<rect x="48.2" y="132.7" class="st2" width="11.2" height="11.2"/>
	<rect x="62.4" y="132.7" class="st3" width="11.2" height="11.2"/>
	<rect x="76.4" y="132.7" class="st0" width="11.2" height="11.2"/>
	<rect x="90.4" y="132.7" class="st1" width="11.2" height="11.2"/>
	<rect x="104.4" y="132.7" class="st2" width="11.2" height="11.2"/>
	<rect x="118.5" y="132.7" class="st3" width="11.2" height="11.2"/>
	<rect x="132.7" y="132.7" class="st1" width="11.2" height="11.2"/>
	<line class="st5" x1="5" y1="75.1" x2="145" y2="75.1"/>
	<line class="st5" x1="74.9" y1="5" x2="74.9" y2="145"/>
</g>
</svg>
