<svg id="Layer_1" xmlns="http://www.w3.org/2000/svg" viewBox="0 0 150 150"><style>.st0{fill:#07659c}.st1{fill:#f04d4c}.st2{fill:#15582d}.st3{fill:#f0ce3c}.st4{fill:#af7bb5}.st5{fill:none;stroke:#939598;stroke-width:.378}</style><path class="st0" d="M6.1 6.1h11.2v11.2H6.1z"/><path class="st1" d="M20.1 6.1h11.2v11.2H20.1z"/><path class="st0" d="M34.2 6.1h11.2v11.2H34.2z"/><path class="st2" d="M48.2 6.1h11.2v11.2H48.2zM62.4 6.1h11.2v11.2H62.4z"/><path class="st3" d="M76.4 6.1h11.2v11.2H76.4z"/><path class="st0" d="M90.4 6.1h11.2v11.2H90.4z"/><path class="st1" d="M104.4 6.1h11.2v11.2h-11.2z"/><path class="st0" d="M118.5 6.1h11.2v11.2h-11.2zM132.7 6.1h11.2v11.2h-11.2zM6.1 20.3h11.2v11.2H6.1z"/><path class="st3" d="M20.1 20.3h11.2v11.2H20.1z"/><path class="st0" d="M34.2 20.3h11.2v11.2H34.2z"/><path class="st2" d="M48.2 20.3h11.2v11.2H48.2z"/><path class="st1" d="M62.4 20.3h11.2v11.2H62.4z"/><path class="st3" d="M76.4 20.3h11.2v11.2H76.4zM90.4 20.3h11.2v11.2H90.4z"/><path class="st2" d="M104.4 20.3h11.2v11.2h-11.2z"/><path class="st1" d="M118.5 20.3h11.2v11.2h-11.2zM132.7 20.3h11.2v11.2h-11.2z"/><path class="st0" d="M6.1 34.3h11.2v11.2H6.1z"/><path class="st2" d="M20.1 34.3h11.2v11.2H20.1z"/><path class="st3" d="M34.2 34.3h11.2v11.2H34.2z"/><path class="st1" d="M48.2 34.3h11.2v11.2H48.2z"/><path class="st0" d="M62.4 34.3h11.2v11.2H62.4z"/><path class="st3" d="M76.4 34.3h11.2v11.2H76.4z"/><path class="st2" d="M90.4 34.3h11.2v11.2H90.4zM104.4 34.3h11.2v11.2h-11.2z"/><path class="st0" d="M118.5 34.3h11.2v11.2h-11.2z"/><path class="st2" d="M132.7 34.3h11.2v11.2h-11.2z"/><path class="st1" d="M6.1 48.4h11.2v11.2H6.1zM20.1 48.4h11.2v11.2H20.1zM34.2 48.4h11.2v11.2H34.2zM48.2 48.4h11.2v11.2H48.2z"/><path class="st0" d="M62.4 48.4h11.2v11.2H62.4z"/><path class="st2" d="M76.4 48.4h11.2v11.2H76.4z"/><path class="st1" d="M90.4 48.4h11.2v11.2H90.4z"/><path class="st2" d="M104.4 48.4h11.2v11.2h-11.2z"/><path class="st3" d="M118.5 48.4h11.2v11.2h-11.2z"/><path class="st2" d="M132.7 48.4h11.2v11.2h-11.2zM6.1 62.4h11.2v11.2H6.1z"/><path class="st0" d="M20.1 62.4h11.2v11.2H20.1z"/><path class="st1" d="M34.2 62.4h11.2v11.2H34.2z"/><path class="st3" d="M48.2 62.4h11.2v11.2H48.2z"/><path class="st0" d="M62.4 62.4h11.2v11.2H62.4z"/><path class="st3" d="M76.4 62.4h11.2v11.2H76.4zM90.4 62.4h11.2v11.2H90.4z"/><path class="st1" d="M104.4 62.4h11.2v11.2h-11.2z"/><path class="st2" d="M118.5 62.4h11.2v11.2h-11.2z"/><path class="st0" d="M132.7 62.4h11.2v11.2h-11.2zM6.1 76.4h11.2v11.2H6.1z"/><path class="st2" d="M20.1 76.4h11.2v11.2H20.1zM34.2 76.4h11.2v11.2H34.2zM48.2 76.4h11.2v11.2H48.2z"/><path class="st1" d="M62.4 76.4h11.2v11.2H62.4zM76.4 76.4h11.2v11.2H76.4z"/><path class="st3" d="M90.4 76.4h11.2v11.2H90.4zM104.4 76.4h11.2v11.2h-11.2z"/><path class="st0" d="M118.5 76.4h11.2v11.2h-11.2z"/><path class="st1" d="M132.7 76.4h11.2v11.2h-11.2z"/><path class="st3" d="M6.1 90.6h11.2v11.2H6.1zM20.1 90.6h11.2v11.2H20.1z"/><path class="st2" d="M34.2 90.6h11.2v11.2H34.2z"/><path class="st3" d="M48.2 90.6h11.2v11.2H48.2zM62.4 90.6h11.2v11.2H62.4z"/><path class="st0" d="M76.4 90.6h11.2v11.2H76.4z"/><path class="st1" d="M90.4 90.6h11.2v11.2H90.4z"/><path class="st2" d="M104.4 90.6h11.2v11.2h-11.2zM118.5 90.6h11.2v11.2h-11.2z"/><path class="st3" d="M132.7 90.6h11.2v11.2h-11.2z"/><path class="st0" d="M6.1 104.6h11.2v11.2H6.1z"/><path class="st1" d="M20.1 104.6h11.2v11.2H20.1z"/><path class="st2" d="M34.2 104.6h11.2v11.2H34.2zM48.2 104.6h11.2v11.2H48.2z"/><path class="st1" d="M62.4 104.6h11.2v11.2H62.4z"/><path class="st2" d="M76.4 104.6h11.2v11.2H76.4z"/><path class="st1" d="M90.4 104.6h11.2v11.2H90.4z"/><path class="st3" d="M104.4 104.6h11.2v11.2h-11.2z"/><path class="st1" d="M118.5 104.6h11.2v11.2h-11.2z"/><path class="st0" d="M132.7 104.6h11.2v11.2h-11.2z"/><path class="st1" d="M6.1 118.6h11.2v11.2H6.1z"/><path class="st3" d="M20.1 118.6h11.2v11.2H20.1zM34.2 118.6h11.2v11.2H34.2z"/><path class="st0" d="M48.2 118.6h11.2v11.2H48.2z"/><path class="st3" d="M62.4 118.6h11.2v11.2H62.4z"/><path class="st0" d="M76.4 118.6h11.2v11.2H76.4z"/><path class="st2" d="M90.4 118.6h11.2v11.2H90.4z"/><path class="st0" d="M104.4 118.6h11.2v11.2h-11.2z"/><path class="st4" d="M118.5 118.6h11.2v11.2h-11.2z"/><path class="st1" d="M132.7 118.6h11.2v11.2h-11.2z"/><path class="st0" d="M6.1 132.7h11.2v11.2H6.1z"/><path class="st3" d="M20.1 132.7h11.2v11.2H20.1z"/><path class="st0" d="M34.2 132.7h11.2v11.2H34.2z"/><path class="st2" d="M48.2 132.7h11.2v11.2H48.2z"/><path class="st3" d="M62.4 132.7h11.2v11.2H62.4z"/><path class="st0" d="M76.4 132.7h11.2v11.2H76.4z"/><path class="st1" d="M90.4 132.7h11.2v11.2H90.4z"/><path class="st2" d="M104.4 132.7h11.2v11.2h-11.2z"/><path class="st3" d="M118.5 132.7h11.2v11.2h-11.2z"/><path class="st1" d="M132.7 132.7h11.2v11.2h-11.2z"/><path class="st5" d="M5 75.1h140M74.9 5v140"/></svg>