<svg height="775" id="grid" width="775" style="border: 1px solid #888; display: inline-block;" xmlns="http://www.w3.org/2000/svg"><g transform="translate(5,5)"><rect height="50" width="50" x="0" y="0" style="fill: rgb(23,73,95);"></rect><rect height="50" width="50" x="55" y="0" style="fill: rgb(131,71,80);"></rect><rect height="50" width="50" x="110" y="0" style="fill: rgb(131,71,80);"></rect><rect height="50" width="50" x="165" y="0" style="fill: rgb(131,71,80);"></rect><rect height="50" width="50" x="220" y="0" style="fill: rgb(0,68,43);"></rect><rect height="50" width="50" x="275" y="0" style="fill: rgb(120,106,24);"></rect><rect height="50" width="50" x="330" y="0" style="fill: rgb(131,71,80);"></rect><rect height="50" width="50" x="385" y="0" style="fill: rgb(120,106,24);"></rect><rect height="50" width="50" x="440" y="0" style="fill: rgb(0,68,43);"></rect><rect height="50" width="50" x="495" y="0" style="fill: rgb(131,71,80);"></rect><rect height="50" width="50" x="550" y="0" style="fill: rgb(120,106,24);"></rect><rect height="50" width="50" x="605" y="0" style="fill: rgb(0,68,43);"></rect><rect height="50" width="50" x="660" y="0" style="fill: rgb(131,71,80);"></rect><rect height="50" width="50" x="715" y="0" style="fill: rgb(23,73,95);"></rect><rect height="50" width="50" x="0" y="55" style="fill: rgb(120,106,24);"></rect><rect height="50" width="50" x="55" y="55" style="fill: rgb(0,68,43);"></rect><rect height="50" width="50" x="110" y="55" style="fill: rgb(120,106,24);"></rect><rect height="50" width="50" x="165" y="55" style="fill: rgb(131,71,80);"></rect><rect height="50" width="50" x="220" y="55" style="fill: rgb(0,68,43);"></rect><rect height="50" width="50" x="275" y="55" style="fill: rgb(120,106,24);"></rect><rect height="50" width="50" x="330" y="55" style="fill: rgb(131,71,80);"></rect><rect height="50" width="50" x="385" y="55" style="fill: rgb(0,68,43);"></rect><rect height="50" width="50" x="440" y="55" style="fill: rgb(120,106,24);"></rect><rect height="50" width="50" x="495" y="55" style="fill: rgb(131,71,80);"></rect><rect height="50" width="50" x="550" y="55" style="fill: rgb(0,68,43);"></rect><rect height="50" width="50" x="605" y="55" style="fill: rgb(0,68,43);"></rect><rect height="50" width="50" x="660" y="55" style="fill: rgb(0,68,43);"></rect><rect height="50" width="50" x="715" y="55" style="fill: rgb(23,73,95);"></rect><rect height="50" width="50" x="0" y="110" style="fill: rgb(0,68,43);"></rect><rect height="50" width="50" x="55" y="110" style="fill: rgb(120,106,24);"></rect><rect height="50" width="50" x="110" y="110" style="fill: rgb(131,71,80);"></rect><rect height="50" width="50" x="165" y="110" style="fill: rgb(0,68,43);"></rect><rect height="50" width="50" x="220" y="110" style="fill: rgb(23,73,95);"></rect><rect height="50" width="50" x="275" y="110" style="fill: rgb(120,106,24);"></rect><rect height="50" width="50" x="330" y="110" style="fill: rgb(120,106,24);"></rect><rect height="50" width="50" x="385" y="110" style="fill: rgb(120,106,24);"></rect><rect height="50" width="50" x="440" y="110" style="fill: rgb(131,71,80);"></rect><rect height="50" width="50" x="495" y="110" style="fill: rgb(131,71,80);"></rect><rect height="50" width="50" x="550" y="110" style="fill: rgb(120,106,24);"></rect><rect height="50" width="50" x="605" y="110" style="fill: rgb(120,106,24);"></rect><rect height="50" width="50" x="660" y="110" style="fill: rgb(120,106,24);"></rect><rect height="50" width="50" x="715" y="110" style="fill: rgb(23,73,95);"></rect><rect height="50" width="50" x="0" y="165" style="fill: rgb(0,68,43);"></rect><rect height="50" width="50" x="55" y="165" style="fill: rgb(0,68,43);"></rect><rect height="50" width="50" x="110" y="165" style="fill: rgb(23,73,95);"></rect><rect height="50" width="50" x="165" y="165" style="fill: rgb(0,68,43);"></rect><rect height="50" width="50" x="220" y="165" style="fill: rgb(120,106,24);"></rect><rect height="50" width="50" x="275" y="165" style="fill: rgb(0,68,43);"></rect><rect height="50" width="50" x="330" y="165" style="fill: rgb(0,68,43);"></rect><rect height="50" width="50" x="385" y="165" style="fill: rgb(0,68,43);"></rect><rect height="50" width="50" x="440" y="165" style="fill: rgb(0,68,43);"></rect><rect height="50" width="50" x="495" y="165" style="fill: rgb(120,106,24);"></rect><rect height="50" width="50" x="550" y="165" style="fill: rgb(98,63,117);"></rect><rect height="50" width="50" x="605" y="165" style="fill: rgb(0,68,43);"></rect><rect height="50" width="50" x="660" y="165" style="fill: rgb(23,73,95);"></rect><rect height="50" width="50" x="715" y="165" style="fill: rgb(23,73,95);"></rect><rect height="50" width="50" x="0" y="220" style="fill: rgb(0,68,43);"></rect><rect height="50" width="50" x="55" y="220" style="fill: rgb(131,71,80);"></rect><rect height="50" width="50" x="110" y="220" style="fill: rgb(131,71,80);"></rect><rect height="50" width="50" x="165" y="220" style="fill: rgb(0,68,43);"></rect><rect height="50" width="50" x="220" y="220" style="fill: rgb(120,106,24);"></rect><rect height="50" width="50" x="275" y="220" style="fill: rgb(23,73,95);"></rect><rect height="50" width="50" x="330" y="220" style="fill: rgb(131,71,80);"></rect><rect height="50" width="50" x="385" y="220" style="fill: rgb(131,71,80);"></rect><rect height="50" width="50" x="440" y="220" style="fill: rgb(0,68,43);"></rect><rect height="50" width="50" x="495" y="220" style="fill: rgb(0,68,43);"></rect><rect height="50" width="50" x="550" y="220" style="fill: rgb(23,73,95);"></rect><rect height="50" width="50" x="605" y="220" style="fill: rgb(131,71,80);"></rect><rect height="50" width="50" x="660" y="220" style="fill: rgb(0,68,43);"></rect><rect height="50" width="50" x="715" y="220" style="fill: rgb(0,68,43);"></rect><rect height="50" width="50" x="0" y="275" style="fill: rgb(131,71,80);"></rect><rect height="50" width="50" x="55" y="275" style="fill: rgb(23,73,95);"></rect><rect height="50" width="50" x="110" y="275" style="fill: rgb(120,106,24);"></rect><rect height="50" width="50" x="165" y="275" style="fill: rgb(0,68,43);"></rect><rect height="50" width="50" x="220" y="275" style="fill: rgb(0,68,43);"></rect><rect height="50" width="50" x="275" y="275" style="fill: rgb(0,68,43);"></rect><rect height="50" width="50" x="330" y="275" style="fill: rgb(120,106,24);"></rect><rect height="50" width="50" x="385" y="275" style="fill: rgb(23,73,95);"></rect><rect height="50" width="50" x="440" y="275" style="fill: rgb(131,71,80);"></rect><rect height="50" width="50" x="495" y="275" style="fill: rgb(0,68,43);"></rect><rect height="50" width="50" x="550" y="275" style="fill: rgb(131,71,80);"></rect><rect height="50" width="50" x="605" y="275" style="fill: rgb(131,71,80);"></rect><rect height="50" width="50" x="660" y="275" style="fill: rgb(131,71,80);"></rect><rect height="50" width="50" x="715" y="275" style="fill: rgb(0,68,43);"></rect><rect height="50" width="50" x="0" y="330" style="fill: rgb(120,106,24);"></rect><rect height="50" width="50" x="55" y="330" style="fill: rgb(23,73,95);"></rect><rect height="50" width="50" x="110" y="330" style="fill: rgb(120,106,24);"></rect><rect height="50" width="50" x="165" y="330" style="fill: rgb(23,73,95);"></rect><rect height="50" width="50" x="220" y="330" style="fill: rgb(23,73,95);"></rect><rect height="50" width="50" x="275" y="330" style="fill: rgb(0,68,43);"></rect><rect height="50" width="50" x="330" y="330" style="fill: rgb(120,106,24);"></rect><rect height="50" width="50" x="385" y="330" style="fill: rgb(23,73,95);"></rect><rect height="50" width="50" x="440" y="330" style="fill: rgb(120,106,24);"></rect><rect height="50" width="50" x="495" y="330" style="fill: rgb(120,106,24);"></rect><rect height="50" width="50" x="550" y="330" style="fill: rgb(23,73,95);"></rect><rect height="50" width="50" x="605" y="330" style="fill: rgb(131,71,80);"></rect><rect height="50" width="50" x="660" y="330" style="fill: rgb(0,68,43);"></rect><rect height="50" width="50" x="715" y="330" style="fill: rgb(23,73,95);"></rect><rect height="50" width="50" x="0" y="385" style="fill: rgb(120,106,24);"></rect><rect height="50" width="50" x="55" y="385" style="fill: rgb(131,71,80);"></rect><rect height="50" width="50" x="110" y="385" style="fill: rgb(23,73,95);"></rect><rect height="50" width="50" x="165" y="385" style="fill: rgb(131,71,80);"></rect><rect height="50" width="50" x="220" y="385" style="fill: rgb(23,73,95);"></rect><rect height="50" width="50" x="275" y="385" style="fill: rgb(131,71,80);"></rect><rect height="50" width="50" x="330" y="385" style="fill: rgb(0,68,43);"></rect><rect height="50" width="50" x="385" y="385" style="fill: rgb(131,71,80);"></rect><rect height="50" width="50" x="440" y="385" style="fill: rgb(131,71,80);"></rect><rect height="50" width="50" x="495" y="385" style="fill: rgb(0,68,43);"></rect><rect height="50" width="50" x="550" y="385" style="fill: rgb(23,73,95);"></rect><rect height="50" width="50" x="605" y="385" style="fill: rgb(120,106,24);"></rect><rect height="50" width="50" x="660" y="385" style="fill: rgb(23,73,95);"></rect><rect height="50" width="50" x="715" y="385" style="fill: rgb(120,106,24);"></rect><rect height="50" width="50" x="0" y="440" style="fill: rgb(120,106,24);"></rect><rect height="50" width="50" x="55" y="440" style="fill: rgb(0,68,43);"></rect><rect height="50" width="50" x="110" y="440" style="fill: rgb(120,106,24);"></rect><rect height="50" width="50" x="165" y="440" style="fill: rgb(23,73,95);"></rect><rect height="50" width="50" x="220" y="440" style="fill: rgb(0,68,43);"></rect><rect height="50" width="50" x="275" y="440" style="fill: rgb(120,106,24);"></rect><rect height="50" width="50" x="330" y="440" style="fill: rgb(23,73,95);"></rect><rect height="50" width="50" x="385" y="440" style="fill: rgb(131,71,80);"></rect><rect height="50" width="50" x="440" y="440" style="fill: rgb(120,106,24);"></rect><rect height="50" width="50" x="495" y="440" style="fill: rgb(0,68,43);"></rect><rect height="50" width="50" x="550" y="440" style="fill: rgb(0,68,43);"></rect><rect height="50" width="50" x="605" y="440" style="fill: rgb(23,73,95);"></rect><rect height="50" width="50" x="660" y="440" style="fill: rgb(120,106,24);"></rect><rect height="50" width="50" x="715" y="440" style="fill: rgb(120,106,24);"></rect><rect height="50" width="50" x="0" y="495" style="fill: rgb(23,73,95);"></rect><rect height="50" width="50" x="55" y="495" style="fill: rgb(0,68,43);"></rect><rect height="50" width="50" x="110" y="495" style="fill: rgb(0,68,43);"></rect><rect height="50" width="50" x="165" y="495" style="fill: rgb(131,71,80);"></rect><rect height="50" width="50" x="220" y="495" style="fill: rgb(23,73,95);"></rect><rect height="50" width="50" x="275" y="495" style="fill: rgb(120,106,24);"></rect><rect height="50" width="50" x="330" y="495" style="fill: rgb(0,68,43);"></rect><rect height="50" width="50" x="385" y="495" style="fill: rgb(0,68,43);"></rect><rect height="50" width="50" x="440" y="495" style="fill: rgb(0,68,43);"></rect><rect height="50" width="50" x="495" y="495" style="fill: rgb(120,106,24);"></rect><rect height="50" width="50" x="550" y="495" style="fill: rgb(23,73,95);"></rect><rect height="50" width="50" x="605" y="495" style="fill: rgb(0,68,43);"></rect><rect height="50" width="50" x="660" y="495" style="fill: rgb(131,71,80);"></rect><rect height="50" width="50" x="715" y="495" style="fill: rgb(23,73,95);"></rect><rect height="50" width="50" x="0" y="550" style="fill: rgb(131,71,80);"></rect><rect height="50" width="50" x="55" y="550" style="fill: rgb(23,73,95);"></rect><rect height="50" width="50" x="110" y="550" style="fill: rgb(23,73,95);"></rect><rect height="50" width="50" x="165" y="550" style="fill: rgb(0,68,43);"></rect><rect height="50" width="50" x="220" y="550" style="fill: rgb(120,106,24);"></rect><rect height="50" width="50" x="275" y="550" style="fill: rgb(23,73,95);"></rect><rect height="50" width="50" x="330" y="550" style="fill: rgb(0,68,43);"></rect><rect height="50" width="50" x="385" y="550" style="fill: rgb(0,68,43);"></rect><rect height="50" width="50" x="440" y="550" style="fill: rgb(0,68,43);"></rect><rect height="50" width="50" x="495" y="550" style="fill: rgb(23,73,95);"></rect><rect height="50" width="50" x="550" y="550" style="fill: rgb(23,73,95);"></rect><rect height="50" width="50" x="605" y="550" style="fill: rgb(120,106,24);"></rect><rect height="50" width="50" x="660" y="550" style="fill: rgb(23,73,95);"></rect><rect height="50" width="50" x="715" y="550" style="fill: rgb(120,106,24);"></rect><rect height="50" width="50" x="0" y="605" style="fill: rgb(120,106,24);"></rect><rect height="50" width="50" x="55" y="605" style="fill: rgb(23,73,95);"></rect><rect height="50" width="50" x="110" y="605" style="fill: rgb(131,71,80);"></rect><rect height="50" width="50" x="165" y="605" style="fill: rgb(120,106,24);"></rect><rect height="50" width="50" x="220" y="605" style="fill: rgb(120,106,24);"></rect><rect height="50" width="50" x="275" y="605" style="fill: rgb(131,71,80);"></rect><rect height="50" width="50" x="330" y="605" style="fill: rgb(23,73,95);"></rect><rect height="50" width="50" x="385" y="605" style="fill: rgb(131,71,80);"></rect><rect height="50" width="50" x="440" y="605" style="fill: rgb(120,106,24);"></rect><rect height="50" width="50" x="495" y="605" style="fill: rgb(120,106,24);"></rect><rect height="50" width="50" x="550" y="605" style="fill: rgb(131,71,80);"></rect><rect height="50" width="50" x="605" y="605" style="fill: rgb(120,106,24);"></rect><rect height="50" width="50" x="660" y="605" style="fill: rgb(23,73,95);"></rect><rect height="50" width="50" x="715" y="605" style="fill: rgb(23,73,95);"></rect><rect height="50" width="50" x="0" y="660" style="fill: rgb(120,106,24);"></rect><rect height="50" width="50" x="55" y="660" style="fill: rgb(23,73,95);"></rect><rect height="50" width="50" x="110" y="660" style="fill: rgb(120,106,24);"></rect><rect height="50" width="50" x="165" y="660" style="fill: rgb(23,73,95);"></rect><rect height="50" width="50" x="220" y="660" style="fill: rgb(23,73,95);"></rect><rect height="50" width="50" x="275" y="660" style="fill: rgb(120,106,24);"></rect><rect height="50" width="50" x="330" y="660" style="fill: rgb(131,71,80);"></rect><rect height="50" width="50" x="385" y="660" style="fill: rgb(120,106,24);"></rect><rect height="50" width="50" x="440" y="660" style="fill: rgb(23,73,95);"></rect><rect height="50" width="50" x="495" y="660" style="fill: rgb(131,71,80);"></rect><rect height="50" width="50" x="550" y="660" style="fill: rgb(120,106,24);"></rect><rect height="50" width="50" x="605" y="660" style="fill: rgb(131,71,80);"></rect><rect height="50" width="50" x="660" y="660" style="fill: rgb(23,73,95);"></rect><rect height="50" width="50" x="715" y="660" style="fill: rgb(131,71,80);"></rect><rect height="50" width="50" x="0" y="715" style="fill: rgb(23,73,95);"></rect><rect height="50" width="50" x="55" y="715" style="fill: rgb(131,71,80);"></rect><rect height="50" width="50" x="110" y="715" style="fill: rgb(23,73,95);"></rect><rect height="50" width="50" x="165" y="715" style="fill: rgb(23,73,95);"></rect><rect height="50" width="50" x="220" y="715" style="fill: rgb(23,73,95);"></rect><rect height="50" width="50" x="275" y="715" style="fill: rgb(23,73,95);"></rect><rect height="50" width="50" x="330" y="715" style="fill: rgb(131,71,80);"></rect><rect height="50" width="50" x="385" y="715" style="fill: rgb(131,71,80);"></rect><rect height="50" width="50" x="440" y="715" style="fill: rgb(131,71,80);"></rect><rect height="50" width="50" x="495" y="715" style="fill: rgb(131,71,80);"></rect><rect height="50" width="50" x="550" y="715" style="fill: rgb(131,71,80);"></rect><rect height="50" width="50" x="605" y="715" style="fill: rgb(131,71,80);"></rect><rect height="50" width="50" x="660" y="715" style="fill: rgb(131,71,80);"></rect><rect height="50" width="50" x="715" y="715" style="fill: rgb(131,71,80);"></rect></g><path d="M0,387.5L775,387.5" stroke="#888" stroke-width="1" fill="none"></path><path d="M387.5,0L387.5,775" stroke="#888" stroke-width="1" fill="none"></path></svg>