<?xml version="1.0" encoding="utf-8"?>
<!-- Generator: Adobe Illustrator 19.2.1, SVG Export Plug-In . SVG Version: 6.00 Build 0)  -->
<svg version="1.1" id="Layer_1" xmlns="http://www.w3.org/2000/svg" xmlns:xlink="http://www.w3.org/1999/xlink" x="0px" y="0px"
	 viewBox="0 0 808 311.7" style="enable-background:new 0 0 808 311.7;" xml:space="preserve">
<style type="text/css">
	.st0{fill:#010101;}
	.st1{font-family:'HelveticaNeue-Light';}
	.st2{font-size:22.1046px;}
	.st3{fill:#C0DB79;stroke:#676767;stroke-miterlimit:10;}
	.st4{fill:#FFFFFF;stroke:#676767;stroke-miterlimit:10;}
	.st5{fill:#B1C4E6;stroke:#676767;stroke-miterlimit:10;}
	.st6{fill:#BA9BC9;}
	.st7{fill:none;stroke:#989898;stroke-width:3;stroke-miterlimit:10;}
	.st8{fill:#989898;}
	.st9{fill:none;stroke:#CDCCCC;stroke-miterlimit:10;}
	.st10{fill:none;stroke:#CDCCCC;stroke-miterlimit:10;stroke-dasharray:4.9759,4.9759;}
	.st11{fill:#BA9BC9;stroke:#676767;stroke-miterlimit:10;}
	.st12{fill:#3F6C33;stroke:#676767;stroke-miterlimit:10;}
	.st13{fill:#68943F;stroke:#676767;stroke-miterlimit:10;}
</style>
<g>
	<text transform="matrix(1 0 0 1 380.3083 41.2202)"><tspan x="0" y="0" class="st0 st1 st2">create a task for</tspan><tspan x="-12.5" y="26.5" class="st0 st1 st2">each data attribute</tspan></text>
</g>
<g>
	<rect x="671.8" y="7.7" class="st3" width="37.5" height="20.3"/>
	<rect x="709.3" y="7.7" class="st4" width="37.5" height="20.3"/>
	<rect x="671.8" y="28" class="st3" width="37.5" height="20.3"/>
	<rect x="634.3" y="28" class="st4" width="37.5" height="20.3"/>
	<rect x="671.8" y="48.4" class="st3" width="37.5" height="20.3"/>
	<rect x="709.3" y="28" class="st4" width="37.5" height="20.3"/>
	<rect x="709.3" y="48.4" class="st4" width="37.5" height="20.3"/>
	<rect x="634.3" y="7.7" class="st4" width="37.5" height="20.3"/>
	<rect x="746.8" y="68.7" class="st4" width="37.5" height="20.3"/>
	<rect x="746.8" y="48.4" class="st4" width="37.5" height="20.3"/>
	<rect x="746.8" y="28" class="st4" width="37.5" height="20.3"/>
	<rect x="746.8" y="7.7" class="st4" width="37.5" height="20.3"/>
	<rect x="634.3" y="48.4" class="st4" width="37.5" height="20.3"/>
	<rect x="709.3" y="68.7" class="st4" width="37.5" height="20.3"/>
	<rect x="634.3" y="68.7" class="st4" width="37.5" height="20.3"/>
	<rect x="671.8" y="68.7" class="st3" width="37.5" height="20.3"/>
</g>
<text transform="matrix(1 0 0 1 333.2057 270.5026)" class="st0 st1 st2">create a task for each row</text>
<g>
	<rect x="671.8" y="223.7" class="st4" width="37.5" height="20.3"/>
	<rect x="709.3" y="223.7" class="st4" width="37.5" height="20.3"/>
	<rect x="671.8" y="244.1" class="st3" width="37.5" height="20.3"/>
	<rect x="634.3" y="244.1" class="st5" width="37.5" height="20.3"/>
	<rect x="671.8" y="264.4" class="st4" width="37.5" height="20.3"/>
	<rect x="709.3" y="244.1" class="st3" width="37.5" height="20.3"/>
	<rect x="709.3" y="264.4" class="st4" width="37.5" height="20.3"/>
	<rect x="634.3" y="223.7" class="st5" width="37.5" height="20.3"/>
	<rect x="746.8" y="284.7" class="st4" width="37.5" height="20.3"/>
	<rect x="746.8" y="264.4" class="st4" width="37.5" height="20.3"/>
	<rect x="746.8" y="244.1" class="st3" width="37.5" height="20.3"/>
	<rect x="746.8" y="223.7" class="st4" width="37.5" height="20.3"/>
	<rect x="634.3" y="264.4" class="st5" width="37.5" height="20.3"/>
	<rect x="709.3" y="284.7" class="st4" width="37.5" height="20.3"/>
	<rect x="634.3" y="284.7" class="st5" width="37.5" height="20.3"/>
	<rect x="671.8" y="284.7" class="st4" width="37.5" height="20.3"/>
</g>
<g>
	<line class="st6" x1="166.8" y1="48.4" x2="310.3" y2="48.4"/>
	<g>
		<line class="st7" x1="166.8" y1="48.4" x2="307" y2="48.4"/>
		<g>
			<polygon class="st8" points="297.1,60.7 295,58.5 305.9,48.4 295,38.3 297.1,36.1 310.3,48.4 			"/>
		</g>
	</g>
</g>
<g>
	<line class="st6" x1="166.8" y1="264.4" x2="210.4" y2="264.4"/>
	<g>
		<line class="st7" x1="166.8" y1="264.4" x2="207.2" y2="264.4"/>
		<g>
			<polygon class="st8" points="197.2,276.7 195.2,274.5 206,264.4 195.2,254.3 197.2,252.1 210.4,264.4 			"/>
		</g>
	</g>
</g>
<g>
	<line class="st6" x1="264.7" y1="264.4" x2="310.3" y2="264.4"/>
	<g>
		<line class="st7" x1="264.7" y1="264.4" x2="307" y2="264.4"/>
		<g>
			<polygon class="st8" points="297.1,276.7 295,274.5 305.9,264.4 295,254.3 297.1,252.1 310.3,264.4 			"/>
		</g>
	</g>
</g>
<g>
	<g>
		<line class="st9" x1="0" y1="96.5" x2="2.5" y2="96.5"/>
		<line class="st10" x1="7.5" y1="96.5" x2="801.1" y2="96.5"/>
		<line class="st9" x1="803.6" y1="96.5" x2="806.1" y2="96.5"/>
	</g>
</g>
<g>
	<g>
		<line class="st9" x1="0" y1="217.4" x2="2.5" y2="217.4"/>
		<line class="st10" x1="7.5" y1="217.4" x2="801.1" y2="217.4"/>
		<line class="st9" x1="803.6" y1="217.4" x2="806.1" y2="217.4"/>
	</g>
</g>
<g>
	<g>
		<path class="st11" d="M94.5,293.5v-6.8h8.3V242h-8.3v-6.7h28.8c5.2,0,9.7,0.7,13.5,2.2c3.8,1.5,7,3.5,9.5,6.1
			c2.5,2.6,4.4,5.6,5.7,9.1c1.2,3.5,1.9,7.3,1.9,11.3c0,4.5-0.6,8.6-1.9,12.3c-1.3,3.6-3.2,6.7-5.7,9.3c-2.6,2.5-5.7,4.5-9.6,5.9
			c-3.8,1.4-8.3,2.1-13.4,2.1H94.5z M113.2,286.7h9.1c3.7,0,6.9-0.6,9.6-1.7c2.6-1.1,4.8-2.7,6.4-4.7c1.6-2,2.8-4.4,3.6-7.1
			c0.7-2.7,1.1-5.7,1.1-9c0-3.2-0.4-6.2-1.1-8.9c-0.8-2.7-2-5.1-3.6-7.1c-1.6-2-3.7-3.6-6.3-4.7c-2.6-1.1-5.7-1.7-9.3-1.7h-9.4
			V286.7z"/>
	</g>
	<g>
		<path class="st5" d="M224.5,293.5v-6.8h7.4V242h-7.4v-6.7h25.2v6.7h-7.4v44.7h7.4v6.8H224.5z"/>
	</g>
</g>
<g>
	<text transform="matrix(1 0 0 1 322.7736 135.0205)"><tspan x="0" y="0" class="st0 st1 st2">create a task where workers</tspan><tspan x="19.7" y="26.5" class="st0 st1 st2">iteratively enter as much</tspan><tspan x="74.1" y="53.1" class="st0 st1 st2">as they want</tspan></text>
	<g>
		<rect x="671.8" y="115.2" class="st12" width="37.5" height="20.3"/>
		<rect x="709.3" y="115.2" class="st3" width="37.5" height="20.3"/>
		<rect x="671.8" y="135.5" class="st12" width="37.5" height="20.3"/>
		<rect x="634.3" y="135.5" class="st3" width="37.5" height="20.3"/>
		<rect x="671.8" y="155.9" class="st12" width="37.5" height="20.3"/>
		<rect x="709.3" y="135.5" class="st12" width="37.5" height="20.3"/>
		<rect x="709.3" y="155.9" class="st3" width="37.5" height="20.3"/>
		<rect x="634.3" y="115.2" class="st3" width="37.5" height="20.3"/>
		<rect x="746.8" y="176.2" class="st3" width="37.5" height="20.3"/>
		<rect x="746.8" y="155.9" class="st12" width="37.5" height="20.3"/>
		<rect x="746.8" y="135.5" class="st12" width="37.5" height="20.3"/>
		<rect x="746.8" y="115.2" class="st13" width="37.5" height="20.3"/>
		<rect x="634.3" y="155.9" class="st13" width="37.5" height="20.3"/>
		<rect x="709.3" y="176.2" class="st13" width="37.5" height="20.3"/>
		<rect x="634.3" y="176.2" class="st13" width="37.5" height="20.3"/>
		<rect x="671.8" y="176.2" class="st3" width="37.5" height="20.3"/>
	</g>
	<g>
		<line class="st6" x1="166.8" y1="155.8" x2="310.3" y2="155.8"/>
		<g>
			<line class="st7" x1="166.8" y1="155.8" x2="307" y2="155.8"/>
			<g>
				<polygon class="st8" points="297.1,168.1 295,165.9 305.9,155.8 295,145.7 297.1,143.5 310.3,155.8 				"/>
			</g>
		</g>
	</g>
	<g>
		<path class="st11" d="M94.5,186.1v-6.8h8.3v-44.7h-8.3v-6.7h28.8c5.2,0,9.7,0.7,13.5,2.2c3.8,1.5,7,3.5,9.5,6.1
			c2.5,2.6,4.4,5.6,5.7,9.1c1.2,3.5,1.9,7.3,1.9,11.3c0,4.5-0.6,8.6-1.9,12.3c-1.3,3.6-3.2,6.7-5.7,9.3c-2.6,2.5-5.7,4.5-9.6,5.9
			c-3.8,1.4-8.3,2.1-13.4,2.1H94.5z M113.2,179.3h9.1c3.7,0,6.9-0.6,9.6-1.7c2.6-1.1,4.8-2.7,6.4-4.7c1.6-2,2.8-4.4,3.6-7.1
			c0.7-2.7,1.1-5.7,1.1-9c0-3.2-0.4-6.2-1.1-8.9c-0.8-2.7-2-5.1-3.6-7.1c-1.6-2-3.7-3.6-6.3-4.7c-2.6-1.1-5.7-1.7-9.3-1.7h-9.4
			V179.3z"/>
	</g>
</g>
<g>
	<path class="st11" d="M95,77.5v-6.8h8.3V26H95v-6.7h28.8c5.2,0,9.7,0.7,13.5,2.2c3.8,1.5,7,3.5,9.5,6.1c2.5,2.6,4.4,5.6,5.7,9.1
		c1.2,3.5,1.9,7.3,1.9,11.3c0,4.5-0.6,8.6-1.9,12.3c-1.3,3.6-3.2,6.7-5.7,9.3c-2.6,2.5-5.7,4.5-9.6,5.9c-3.8,1.4-8.3,2.1-13.4,2.1
		H95z M113.7,70.7h9.1c3.7,0,6.9-0.6,9.6-1.7c2.6-1.1,4.8-2.7,6.4-4.7c1.6-2,2.8-4.4,3.6-7.1c0.7-2.7,1.1-5.7,1.1-9
		c0-3.2-0.4-6.2-1.1-8.9c-0.8-2.7-2-5.1-3.6-7.1c-1.6-2-3.7-3.6-6.3-4.7c-2.6-1.1-5.7-1.7-9.3-1.7h-9.4V70.7z"/>
</g>
</svg>
