<?xml version="1.0" encoding="utf-8"?>
<!-- Generator: Adobe Illustrator 20.1.0, SVG Export Plug-In . SVG Version: 6.00 Build 0)  -->
<svg version="1.1" id="Layer_1" xmlns="http://www.w3.org/2000/svg" xmlns:xlink="http://www.w3.org/1999/xlink" x="0px" y="0px"
	 viewBox="0 0 348 133" style="enable-background:new 0 0 348 133;" xml:space="preserve">
<style type="text/css">
	.st0{fill:#333333;}
	.st1{clip-path:url(#SVGID_2_);}
	.st2{fill:url(#SVGID_3_);}
	.st3{fill:url(#SVGID_4_);}
	.st4{fill:none;stroke:url(#SVGID_5_);stroke-width:40;}
	.st5{fill:#F0E11B;}
	.st6{fill:#DAD14C;}
	.st7{fill:#C6C164;}
	.st8{fill:#B4B274;}
	.st9{fill:#A3A37F;}
	.st10{fill:#939486;}
	.st11{fill:#868586;}
	.st12{fill:#777884;}
	.st13{fill:#696A85;}
	.st14{fill:#5C5B8A;}
	.st15{fill:#963FE8;}
	.st16{fill:#9753CD;}
	.st17{fill:#9B5FBA;}
	.st18{fill:#A068AB;}
	.st19{fill:#A66E9F;}
	.st20{fill:#AD7495;}
	.st21{fill:#B7788A;}
	.st22{fill:#C17B7D;}
	.st23{fill:#CC7E6E;}
	.st24{fill:#D8805B;}
	.st25{fill:#0190DC;}
	.st26{fill:#2C97CB;}
	.st27{fill:#3E9DBE;}
	.st28{fill:#4AA3B4;}
	.st29{fill:#51AAAC;}
	.st30{fill:#55B1A4;}
	.st31{fill:#55B89B;}
	.st32{fill:#54C08F;}
	.st33{fill:#52C881;}
	.st34{fill:#50D06F;}
	.st35{fill:#EDEFD3;}
	.st36{fill:#EBDEC6;}
	.st37{fill:#E9CEBA;}
	.st38{fill:#E6BDAF;}
	.st39{fill:#E4ADA4;}
	.st40{fill:#E29C99;}
	.st41{fill:#E08B8E;}
	.st42{fill:#DE7A84;}
	.st43{fill:#DC677A;}
	.st44{fill:#DA5270;}
</style>
<rect class="st0" width="348" height="133"/>
<g>
	<g>
		<defs>
			<path id="SVGID_1_" d="M5.2,21H13c25.1,0,45.5,20.4,45.5,45.5S38.1,112,13,112H5.2V92H13c14.1,0,25.5-11.4,25.5-25.5
				S27.1,41,13,41H5.2V21z M41.5,21h32c15.3,0,27.8,12.4,27.8,27.7c0,6.5-2.3,12.8-6.4,17.8c9.8,11.8,8.2,29.3-3.6,39.1
				c-5,4.1-11.3,6.4-17.8,6.4h-32c7.9-4.9,14.3-11.8,18.7-20h13.3c4.3,0,7.8-3.5,7.8-7.8c0-4.3-3.5-7.8-7.8-7.8h-7.8
				c1.3-6.6,1.3-13.4,0-20h7.8c4.3,0,7.8-3.5,7.8-7.8S77.8,41,73.5,41H60.2C55.8,32.8,49.4,25.9,41.5,21z"/>
		</defs>
		<clipPath id="SVGID_2_">
			<use xlink:href="#SVGID_1_"  style="overflow:visible;"/>
		</clipPath>
		<g class="st1">
			
				<linearGradient id="SVGID_3_" gradientUnits="userSpaceOnUse" x1="-46.751" y1="-9.5" x2="-3.751" y2="-52.5" gradientTransform="matrix(1 0 0 -1 0 134)">
				<stop  offset="0" style="stop-color:#F9A03C"/>
				<stop  offset="1" style="stop-color:#F7974E"/>
			</linearGradient>
			<path class="st2" d="M-121.8-81.5v300h300L-121.8-81.5z"/>
			
				<linearGradient id="SVGID_4_" gradientUnits="userSpaceOnUse" x1="112.249" y1="185.5" x2="175.249" y2="122.5" gradientTransform="matrix(1 0 0 -1 0 134)">
				<stop  offset="0" style="stop-color:#B84E51"/>
				<stop  offset="1" style="stop-color:#F68E48"/>
			</linearGradient>
			<path class="st3" d="M-67.8-81.5h300v300L-67.8-81.5z"/>
			
				<linearGradient id="SVGID_5_" gradientUnits="userSpaceOnUse" x1="6.5314" y1="114.7907" x2="91.5314" y2="28.7907" gradientTransform="matrix(1 0 0 -1 0 134)">
				<stop  offset="0" style="stop-color:#F26D58"/>
				<stop  offset="1" style="stop-color:#F9A03C"/>
			</linearGradient>
			<path class="st4" d="M-94.8-81.5l300,300"/>
		</g>
	</g>
</g>
<g>
	<rect x="143.6" y="44.7" class="st5" width="20.9" height="19.9"/>
	<rect x="163.5" y="44.7" class="st6" width="20.9" height="19.9"/>
	<rect x="183.4" y="44.7" class="st7" width="20.9" height="19.9"/>
	<rect x="203.4" y="44.7" class="st8" width="20.9" height="19.9"/>
	<rect x="223.3" y="44.7" class="st9" width="20.9" height="19.9"/>
	<rect x="243.2" y="44.7" class="st10" width="20.9" height="19.9"/>
	<rect x="263.2" y="44.7" class="st11" width="20.9" height="19.9"/>
	<rect x="283.1" y="44.7" class="st12" width="20.9" height="19.9"/>
	<rect x="303" y="44.7" class="st13" width="20.9" height="19.9"/>
	<rect x="323" y="44.7" class="st14" width="19.9" height="19.9"/>
</g>
<g>
	<rect x="143.6" y="68.4" class="st15" width="20.9" height="19.9"/>
	<rect x="163.5" y="68.4" class="st16" width="20.9" height="19.9"/>
	<rect x="183.4" y="68.4" class="st17" width="20.9" height="19.9"/>
	<rect x="203.4" y="68.4" class="st18" width="20.9" height="19.9"/>
	<rect x="223.3" y="68.4" class="st19" width="20.9" height="19.9"/>
	<rect x="243.2" y="68.4" class="st20" width="20.9" height="19.9"/>
	<rect x="263.2" y="68.4" class="st21" width="20.9" height="19.9"/>
	<rect x="283.1" y="68.4" class="st22" width="20.9" height="19.9"/>
	<rect x="303" y="68.4" class="st23" width="20.9" height="19.9"/>
	<rect x="323" y="68.4" class="st24" width="19.9" height="19.9"/>
</g>
<g>
	<rect x="143.6" y="21" class="st25" width="20.9" height="19.9"/>
	<rect x="163.5" y="21" class="st26" width="20.9" height="19.9"/>
	<rect x="183.4" y="21" class="st27" width="20.9" height="19.9"/>
	<rect x="203.4" y="21" class="st28" width="20.9" height="19.9"/>
	<rect x="223.3" y="21" class="st29" width="20.9" height="19.9"/>
	<rect x="243.2" y="21" class="st30" width="20.9" height="19.9"/>
	<rect x="263.2" y="21" class="st31" width="20.9" height="19.9"/>
	<rect x="283.1" y="21" class="st32" width="20.9" height="19.9"/>
	<rect x="303" y="21" class="st33" width="20.9" height="19.9"/>
	<rect x="323" y="21" class="st34" width="19.9" height="19.9"/>
</g>
<g>
	<rect x="143.6" y="92.1" class="st35" width="20.9" height="19.9"/>
	<rect x="163.5" y="92.1" class="st36" width="20.9" height="19.9"/>
	<rect x="183.4" y="92.1" class="st37" width="20.9" height="19.9"/>
	<rect x="203.4" y="92.1" class="st38" width="20.9" height="19.9"/>
	<rect x="223.3" y="92.1" class="st39" width="20.9" height="19.9"/>
	<rect x="243.2" y="92.1" class="st40" width="20.9" height="19.9"/>
	<rect x="263.2" y="92.1" class="st41" width="20.9" height="19.9"/>
	<rect x="283.1" y="92.1" class="st42" width="20.9" height="19.9"/>
	<rect x="303" y="92.1" class="st43" width="20.9" height="19.9"/>
	<rect x="323" y="92.1" class="st44" width="19.9" height="19.9"/>
</g>
</svg>
