<?xml version="1.0" encoding="utf-8"?>
<!-- Generator: Adobe Illustrator 19.2.1, SVG Export Plug-In . SVG Version: 6.00 Build 0)  -->
<svg version="1.1" id="Layer_2" xmlns="http://www.w3.org/2000/svg" xmlns:xlink="http://www.w3.org/1999/xlink" x="0px" y="0px"
	 viewBox="0 0 390 150" style="enable-background:new 0 0 390 150;" xml:space="preserve">
<style type="text/css">
	.st0{fill:none;stroke:#231F20;stroke-width:8;stroke-linejoin:round;stroke-miterlimit:10;}
	.st1{fill:#6D6E70;}
	.st2{fill:#37B34A;}
	.st3{opacity:0.8;}
	.st4{fill:#DAE8ED;}
	.st5{opacity:0.2;}
	.st6{fill:#BBBDBF;}
	.st7{fill:#58595B;}
</style>
<path class="st0" d="M502.6,90"/>
<g>
	<g>
		<g>
			<path class="st1" d="M23.9,76.8l-1.9-2.9H2.6l-1.8,2.9l-0.8-0.5L2,73.2C2,73.1,2.2,73,2.4,73h19.8c0.2,0,0.3,0.1,0.4,0.2l2.1,3.1
				L23.9,76.8z"/>
		</g>
		<g>
			<g>
				<polygon class="st2" points="0.6,76.4 0.6,89.3 2.5,92.5 22.3,92.5 24.4,89.3 24.2,76.4 22.2,73.4 2.4,73.4 				"/>
			</g>
		</g>
		<g class="st3">
			<g>
				<polygon class="st4" points="24.2,72.7 17.6,65.3 17.6,48.4 18.5,48.4 18.5,45.6 6.3,45.6 6.3,48.4 7.2,48.4 7.2,65.3 0.6,72.7 
					0.6,76.4 2.4,80.1 22.2,80.1 24.3,76.6 				"/>
				<path class="st4" d="M22.2,80.7H2.4c-0.2,0-0.4-0.1-0.5-0.3l-1.8-3.7C0,76.6,0,76.5,0,76.4l0-3.8c0-0.1,0.1-0.3,0.1-0.4l6.5-7.2
					V49H6.3c-0.3,0-0.6-0.3-0.6-0.6v-2.8C5.7,45.3,6,45,6.3,45h12.2c0.3,0,0.6,0.3,0.6,0.6v2.8c0,0.3-0.3,0.6-0.6,0.6h-0.3v16.1
					l6.5,7.2c0.1,0.1,0.1,0.2,0.1,0.4l0,3.9c0,0.1,0,0.2-0.1,0.3l-2,3.5C22.6,80.6,22.4,80.7,22.2,80.7z M2.8,79.5h19.1l1.8-3.1
					l0-3.5l-6.5-7.2c-0.1-0.1-0.1-0.2-0.1-0.4V48.4c0-0.3,0.3-0.6,0.6-0.6H18v-1.7H6.9v1.7h0.3c0.3,0,0.6,0.3,0.6,0.6v16.9
					c0,0.1-0.1,0.3-0.1,0.4l-6.5,7.2l0,3.4L2.8,79.5z"/>
			</g>
		</g>
		<g class="st5">
			<path class="st6" d="M22.3,92.7c-0.3,0-0.5-0.2-0.5-0.5l-0.1-16.1l-4.5-10.3H7.5L2.9,76.1l0.1,16.1c0,0.3-0.2,0.5-0.5,0.5
				c0,0,0,0,0,0c-0.3,0-0.5-0.2-0.5-0.5L1.9,76c0-0.1,0-0.1,0-0.2l4.8-10.7C6.8,65,7,64.9,7.2,64.9h10.4c0.2,0,0.4,0.1,0.4,0.3
				l4.6,10.7c0,0.1,0,0.1,0,0.2l0.1,16.2C22.8,92.5,22.6,92.7,22.3,92.7C22.3,92.7,22.3,92.7,22.3,92.7z"/>
		</g>
		<g class="st5">
			<path class="st6" d="M22.2,76.5H2.4c-0.2,0-0.3-0.1-0.4-0.2l-1.8-3.4c-0.1-0.2,0-0.5,0.2-0.6c0.2-0.1,0.5,0,0.6,0.2l1.7,3.1H22
				l1.9-3.1c0.1-0.2,0.4-0.3,0.6-0.2c0.2,0.1,0.3,0.4,0.2,0.6l-2,3.4C22.5,76.4,22.4,76.5,22.2,76.5z"/>
		</g>
		<g>
			<path class="st1" d="M22.3,92.7H2.5c-0.2,0-0.3-0.1-0.4-0.2l-1.9-3.1c0-0.1-0.1-0.2-0.1-0.2V72.7c0-0.1,0-0.2,0.1-0.3l6.5-7.2
				V48.9H6.3c-0.3,0-0.5-0.2-0.5-0.5v-2.8c0-0.3,0.2-0.5,0.5-0.5h12.2c0.3,0,0.5,0.2,0.5,0.5v2.8c0,0.3-0.2,0.5-0.5,0.5h-0.4v16.3
				l6.5,7.2c0.1,0.1,0.1,0.2,0.1,0.3l0.2,16.5c0,0.1,0,0.2-0.1,0.3l-2.1,3.1C22.6,92.6,22.5,92.7,22.3,92.7z M2.7,91.8h19.3l1.9-2.8
				l-0.2-16.1l-6.5-7.2c-0.1-0.1-0.1-0.2-0.1-0.3V48.4c0-0.3,0.2-0.5,0.5-0.5h0.4V46H6.7v1.9h0.4c0.3,0,0.5,0.2,0.5,0.5v16.9
				c0,0.1,0,0.2-0.1,0.3L1,72.8V89L2.7,91.8z"/>
		</g>
	</g>
	<g>
		<path class="st7" d="M37.3,45.1h33.2v2.5H40.3v19.1h28.4v2.5H40.3v20.9h30.5v2.5H37.3V45.1z"/>
		<path class="st7" d="M86.9,74.7l-13-16.3h3.7l11.1,14.3l11.2-14.3h3.4L90.5,74.7l14,18h-3.6L88.7,76.7L76.3,92.7H73L86.9,74.7z"/>
		<path class="st7" d="M112.9,66.3h0.2c0.3-0.8,0.7-1.8,1.4-2.8c0.6-1,1.5-2,2.6-2.8c1.1-0.9,2.3-1.6,3.8-2.2
			c1.5-0.6,3.2-0.9,5.2-0.9c2.7,0,5.1,0.5,7.1,1.5c2,1,3.7,2.3,5,3.9c1.3,1.6,2.3,3.6,2.9,5.7c0.6,2.2,1,4.5,1,6.9
			c0,2.6-0.3,5-1,7.2c-0.6,2.2-1.6,4.1-2.9,5.6c-1.3,1.6-3,2.8-5,3.7c-2,0.9-4.4,1.3-7.1,1.3c-3,0-5.6-0.6-7.9-1.9
			c-2.3-1.2-4-3.3-5.1-6.1h-0.1l0,19.4h-2.6V58.5h2.6V66.3z M126,91.3c2.3,0,4.3-0.4,6-1.3c1.7-0.8,3.1-2,4.2-3.4
			c1.1-1.4,1.9-3.1,2.4-5c0.5-1.9,0.8-3.9,0.8-6c0-2-0.3-3.9-0.8-5.8c-0.5-1.9-1.3-3.6-2.4-5.1c-1.1-1.5-2.4-2.7-4.1-3.6
			c-1.7-0.9-3.7-1.4-6.1-1.4c-2.4,0-4.4,0.4-6,1.3c-1.7,0.9-3,2.1-4.1,3.5c-1,1.5-1.8,3.1-2.3,5c-0.5,1.9-0.7,3.9-0.7,5.9
			c0,2,0.2,4,0.6,5.9c0.4,1.9,1.1,3.6,2.1,5c1,1.4,2.3,2.6,4,3.5C121.4,90.9,123.5,91.3,126,91.3z"/>
		<path class="st7" d="M150.9,75.9v0.4c0,2,0.3,3.9,0.8,5.7c0.6,1.8,1.4,3.4,2.5,4.8c1.1,1.4,2.4,2.5,4.1,3.3
			c1.6,0.8,3.5,1.2,5.7,1.2c3.6,0,6.4-0.9,8.5-2.7c2.1-1.8,3.5-4.3,4.3-7.5h2.6c-0.8,4-2.5,7.1-5.1,9.2c-2.6,2.1-6.1,3.2-10.3,3.2
			c-2.6,0-4.9-0.5-6.9-1.4c-2-0.9-3.6-2.2-4.9-3.7c-1.3-1.6-2.3-3.4-2.9-5.6c-0.6-2.2-1-4.5-1-7c0-2.4,0.3-4.7,1-6.9
			c0.7-2.2,1.7-4.1,3-5.8c1.3-1.7,3-3,5-4c2-1,4.4-1.5,7.1-1.5c2.5,0,4.7,0.4,6.6,1.3c1.9,0.9,3.5,2.1,4.8,3.6
			c1.3,1.5,2.3,3.3,2.9,5.3c0.7,2,1,4.2,1,6.5c0,0.2,0,0.5,0,0.8c0,0.3,0,0.5,0,0.7L150.9,75.9L150.9,75.9z M177,73.7
			c-0.1-1.9-0.4-3.6-1-5.3c-0.6-1.7-1.4-3.1-2.5-4.4c-1.1-1.3-2.4-2.3-4-3c-1.5-0.8-3.3-1.1-5.3-1.1c-2.1,0-4,0.4-5.6,1.2
			c-1.6,0.8-3,1.8-4.1,3.1c-1.1,1.3-2,2.7-2.6,4.4c-0.6,1.7-1,3.4-1.1,5.2L177,73.7L177,73.7z"/>
		<path class="st7" d="M190.1,66.1h0.2c0.3-1.1,0.9-2.2,1.8-3.1c0.9-1,1.9-1.8,3.1-2.5c1.2-0.7,2.6-1.3,4.1-1.6
			c1.5-0.4,3.1-0.5,4.7-0.5v2.5c-1.4-0.2-3,0-4.7,0.4c-1.8,0.4-3.5,1.4-5.1,2.9c-0.6,0.7-1.2,1.3-1.7,1.9c-0.5,0.6-0.9,1.3-1.2,2.1
			c-0.3,0.8-0.6,1.6-0.8,2.5c-0.2,0.9-0.3,2-0.3,3.3v18.7h-2.6V58.5h2.6V66.1z"/>
		<path class="st7" d="M209.1,52v-6.9h2.6V52H209.1z M209.1,92.7V58.5h2.6v34.3H209.1z"/>
		<path class="st7" d="M221.9,58.5h2.6v7h0.1c0.3-1.1,0.8-2.1,1.5-3c0.7-1,1.5-1.8,2.5-2.5c1-0.7,2.1-1.3,3.3-1.7
			c1.2-0.4,2.5-0.6,3.8-0.6c1.7,0,3.2,0.2,4.4,0.6c1.2,0.4,2.3,1,3.2,1.7c0.9,0.7,1.6,1.5,2.1,2.3c0.5,0.9,0.9,1.7,1,2.6h0.1
			c1.1-2.4,2.5-4.2,4.3-5.4c1.8-1.2,4.1-1.8,7-1.8c1.6,0,3.1,0.2,4.5,0.7c1.4,0.5,2.5,1.2,3.5,2.1c1,1,1.8,2.2,2.3,3.6
			c0.6,1.5,0.8,3.2,0.8,5.2v23.4h-2.6V69.3c0-2.2-0.3-3.9-1-5.1c-0.7-1.2-1.5-2.2-2.5-2.8c-0.9-0.6-1.9-1-2.8-1.2
			c-0.9-0.2-1.7-0.2-2.2-0.2c-1.6,0-3.1,0.3-4.5,0.8c-1.4,0.5-2.5,1.3-3.5,2.4c-1,1.1-1.8,2.4-2.3,4c-0.6,1.6-0.8,3.4-0.8,5.4v20.3
			h-2.6V69.3c0-2.1-0.3-3.8-1-5.1c-0.7-1.3-1.5-2.2-2.4-2.8c-0.9-0.6-1.8-1-2.8-1.2c-0.9-0.2-1.7-0.3-2.2-0.3
			c-1.2,0-2.5,0.2-3.9,0.7c-1.3,0.5-2.6,1.2-3.7,2.3c-1.1,1-2,2.3-2.7,3.9c-0.7,1.6-1,3.5-1,5.7v20.3h-2.6L221.9,58.5L221.9,58.5z"
			/>
		<path class="st7" d="M279.6,75.9v0.4c0,2,0.3,3.9,0.8,5.7c0.6,1.8,1.4,3.4,2.5,4.8c1.1,1.4,2.4,2.5,4.1,3.3
			c1.6,0.8,3.5,1.2,5.7,1.2c3.6,0,6.4-0.9,8.5-2.7c2.1-1.8,3.5-4.3,4.3-7.5h2.6c-0.8,4-2.5,7.1-5.1,9.2c-2.6,2.1-6.1,3.2-10.3,3.2
			c-2.6,0-4.9-0.5-6.9-1.4c-2-0.9-3.6-2.2-4.9-3.7c-1.3-1.6-2.3-3.4-2.9-5.6c-0.6-2.2-1-4.5-1-7c0-2.4,0.3-4.7,1-6.9
			c0.7-2.2,1.7-4.1,3-5.8c1.3-1.7,3-3,5-4c2-1,4.4-1.5,7.1-1.5c2.5,0,4.7,0.4,6.6,1.3c1.9,0.9,3.5,2.1,4.8,3.6
			c1.3,1.5,2.3,3.3,2.9,5.3c0.7,2,1,4.2,1,6.5c0,0.2,0,0.5,0,0.8c0,0.3,0,0.5,0,0.7L279.6,75.9L279.6,75.9z M305.7,73.7
			c-0.1-1.9-0.4-3.6-1-5.3c-0.6-1.7-1.4-3.1-2.5-4.4c-1.1-1.3-2.4-2.3-4-3c-1.6-0.8-3.3-1.1-5.3-1.1c-2.1,0-4,0.4-5.6,1.2
			c-1.6,0.8-3,1.8-4.1,3.1c-1.1,1.3-2,2.7-2.6,4.4c-0.6,1.7-1,3.4-1.1,5.2L305.7,73.7L305.7,73.7z"/>
		<path class="st7" d="M316.3,58.5h2.6v7.3h0.1c0.5-1.3,1.1-2.4,2-3.4c0.9-1,1.8-1.9,3-2.6c1.1-0.7,2.4-1.2,3.7-1.6
			c1.3-0.4,2.7-0.5,4.1-0.5c2.1,0,3.8,0.2,5.3,0.7c1.5,0.5,2.6,1.1,3.6,1.9c0.9,0.8,1.6,1.7,2.2,2.7c0.5,1,0.9,2,1.1,3
			c0.2,1,0.4,2,0.4,3c0,1,0.1,1.8,0.1,2.5v21.2h-2.6V71.1c0-0.8-0.1-1.9-0.2-3.2c-0.1-1.3-0.5-2.5-1.2-3.7c-0.7-1.2-1.7-2.2-3-3
			c-1.4-0.8-3.2-1.3-5.6-1.3c-2,0-3.8,0.4-5.4,1.1c-1.6,0.7-2.9,1.7-4,3c-1.1,1.3-2,2.8-2.5,4.5c-0.6,1.8-0.9,3.7-0.9,5.8v18.5h-2.6
			L316.3,58.5L316.3,58.5z"/>
		<path class="st7" d="M367,60.7h-7.7v23.9c0,1.4,0.2,2.5,0.5,3.3c0.3,0.8,0.8,1.4,1.5,1.8c0.7,0.4,1.5,0.7,2.4,0.8
			c0.9,0.1,2,0.1,3.3,0.1v2.2c-1.3,0.1-2.6,0.1-3.9,0c-1.3-0.1-2.4-0.4-3.4-1c-1-0.6-1.7-1.4-2.3-2.5c-0.6-1.1-0.8-2.6-0.7-4.6V60.7
			H350v-2.2h6.6V47.8h2.6v10.7h7.7V60.7z"/>
		<path class="st7" d="M376.2,66.1h0.2c0.3-1.1,0.9-2.2,1.8-3.1c0.9-1,1.9-1.8,3.1-2.5c1.2-0.7,2.6-1.3,4.1-1.6
			c1.5-0.4,3.1-0.5,4.7-0.5v2.5c-1.4-0.2-3,0-4.7,0.4c-1.8,0.4-3.5,1.4-5.1,2.9c-0.6,0.7-1.2,1.3-1.7,1.9c-0.5,0.6-0.9,1.3-1.2,2.1
			c-0.3,0.8-0.6,1.6-0.8,2.5c-0.2,0.9-0.3,2-0.3,3.3v18.7h-2.6V58.5h2.6V66.1z"/>
	</g>
</g>
</svg>
