<?xml version="1.0" encoding="utf-8"?>
<!-- Generator: Adobe Illustrator 19.0.1, SVG Export Plug-In . SVG Version: 6.00 Build 0)  -->
<svg version="1.1" id="Layer_2" xmlns="http://www.w3.org/2000/svg" xmlns:xlink="http://www.w3.org/1999/xlink" x="0px" y="0px"
	 viewBox="-57.7 249.9 50 50" style="enable-background:new -57.7 249.9 50 50;" xml:space="preserve">
<style type="text/css">
	.st0{fill:#6D6E70;}
	.st1{fill:#37B34A;}
	.st2{opacity:0.8;}
	.st3{fill:#DAE8ED;}
	.st4{opacity:0.2;}
	.st5{fill:#BBBDBF;}
</style>
<g>
	<g>
		<path class="st0" d="M-21.3,282.8l-1.9-2.9h-19.3l-1.8,2.9l-0.8-0.5l1.9-3.1c0.1-0.1,0.2-0.2,0.4-0.2h19.8c0.2,0,0.3,0.1,0.4,0.2
			l2.1,3.1L-21.3,282.8z"/>
	</g>
	<g>
		<g>
			<polygon class="st1" points="-44.5,282.4 -44.5,295.3 -42.6,298.5 -22.8,298.5 -20.7,295.3 -20.9,282.4 -22.9,279.4 -42.8,279.4 
							"/>
		</g>
	</g>
	<g class="st2">
		<g>
			<polygon class="st3" points="-20.9,278.7 -27.5,271.3 -27.5,254.4 -26.6,254.4 -26.6,251.6 -38.8,251.6 -38.8,254.4 -37.9,254.4 
				-37.9,271.3 -44.5,278.7 -44.5,282.4 -42.7,286.1 -22.9,286.1 -20.9,282.6 			"/>
			<path class="st3" d="M-22.9,286.7h-19.8c-0.2,0-0.4-0.1-0.5-0.3l-1.8-3.7c0-0.1-0.1-0.2-0.1-0.3l0-3.8c0-0.1,0.1-0.3,0.1-0.4
				l6.5-7.2V255h-0.3c-0.3,0-0.6-0.3-0.6-0.6v-2.8c0-0.3,0.3-0.6,0.6-0.6h12.2c0.3,0,0.6,0.3,0.6,0.6v2.8c0,0.3-0.3,0.6-0.6,0.6
				h-0.3v16.1l6.5,7.2c0.1,0.1,0.1,0.2,0.1,0.4l0,3.9c0,0.1,0,0.2-0.1,0.3l-2,3.5C-22.5,286.6-22.7,286.7-22.9,286.7z M-42.4,285.5
				h19.1l1.8-3.1l0-3.5l-6.5-7.2c-0.1-0.1-0.1-0.2-0.1-0.4v-16.9c0-0.3,0.3-0.6,0.6-0.6h0.3v-1.7h-11.1v1.7h0.3
				c0.3,0,0.6,0.3,0.6,0.6v16.9c0,0.1-0.1,0.3-0.1,0.4l-6.5,7.2l0,3.4L-42.4,285.5z"/>
		</g>
	</g>
	<g class="st4">
		<path class="st5" d="M-22.8,298.7c-0.3,0-0.5-0.2-0.5-0.5l-0.1-16.1l-4.5-10.3h-9.8l-4.6,10.3l0.1,16.1c0,0.3-0.2,0.5-0.5,0.5
			c0,0,0,0,0,0c-0.3,0-0.5-0.2-0.5-0.5l-0.1-16.2c0-0.1,0-0.1,0-0.2l4.8-10.7c0.1-0.2,0.2-0.3,0.4-0.3h10.4c0.2,0,0.4,0.1,0.4,0.3
			l4.6,10.7c0,0.1,0,0.1,0,0.2l0.1,16.2C-22.3,298.5-22.6,298.7-22.8,298.7C-22.8,298.7-22.8,298.7-22.8,298.7z"/>
	</g>
	<g class="st4">
		<path class="st5" d="M-22.9,282.5h-19.8c-0.2,0-0.3-0.1-0.4-0.2l-1.8-3.4c-0.1-0.2,0-0.5,0.2-0.6c0.2-0.1,0.5,0,0.6,0.2l1.7,3.1
			h19.3l1.9-3.1c0.1-0.2,0.4-0.3,0.6-0.2c0.2,0.1,0.3,0.4,0.2,0.6l-2,3.4C-22.6,282.4-22.7,282.5-22.9,282.5z"/>
	</g>
	<g>
		<path class="st0" d="M-22.8,298.7h-19.8c-0.2,0-0.3-0.1-0.4-0.2l-1.9-3.1c0-0.1-0.1-0.2-0.1-0.2v-16.5c0-0.1,0-0.2,0.1-0.3
			l6.5-7.2v-16.3h-0.4c-0.3,0-0.5-0.2-0.5-0.5v-2.8c0-0.3,0.2-0.5,0.5-0.5h12.2c0.3,0,0.5,0.2,0.5,0.5v2.8c0,0.3-0.2,0.5-0.5,0.5
			h-0.4v16.3l6.5,7.2c0.1,0.1,0.1,0.2,0.1,0.3l0.2,16.5c0,0.1,0,0.2-0.1,0.3l-2.1,3.1C-22.5,298.6-22.7,298.7-22.8,298.7z
			 M-42.4,297.8h19.3l1.9-2.8l-0.2-16.1l-6.5-7.2c-0.1-0.1-0.1-0.2-0.1-0.3v-16.9c0-0.3,0.2-0.5,0.5-0.5h0.4V252h-11.3v1.9h0.4
			c0.3,0,0.5,0.2,0.5,0.5v16.9c0,0.1,0,0.2-0.1,0.3l-6.5,7.2V295L-42.4,297.8z"/>
	</g>
</g>
</svg>
