<?xml version="1.0" encoding="utf-8"?>
<!-- Generator: Adobe Illustrator 19.0.1, SVG Export Plug-In . SVG Version: 6.00 Build 0)  -->
<svg version="1.1" id="Layer_1" xmlns="http://www.w3.org/2000/svg" xmlns:xlink="http://www.w3.org/1999/xlink" x="0px" y="0px"
	 viewBox="0 0 100 100" style="enable-background:new 0 0 100 100;" xml:space="preserve">
<style type="text/css">
	.st0{fill:#02649B;}
	.st1{fill:#EF4C4B;}
	.st2{fill:#0F562C;}
	.st3{fill:#EFCC3D;}
	.st4{fill:#AE7AB4;}
	.st5{fill:none;stroke:#929497;stroke-width:0.378;}
</style>
<rect x="0.8" y="0.8" class="st0" width="8" height="8"/>
<rect x="10.8" y="0.8" class="st1" width="8" height="8"/>
<rect x="20.9" y="0.8" class="st0" width="8" height="8"/>
<rect x="30.9" y="0.8" class="st2" width="8" height="8"/>
<rect x="41" y="0.8" class="st2" width="8" height="8"/>
<rect x="51" y="0.8" class="st3" width="8" height="8"/>
<rect x="61" y="0.8" class="st0" width="8" height="8"/>
<rect x="71.1" y="0.8" class="st1" width="8" height="8"/>
<rect x="81.1" y="0.8" class="st0" width="8" height="8"/>
<rect x="91.2" y="0.8" class="st0" width="8" height="8"/>
<rect x="0.8" y="10.8" class="st0" width="8" height="8"/>
<rect x="10.8" y="10.8" class="st3" width="8" height="8"/>
<rect x="20.9" y="10.8" class="st0" width="8" height="8"/>
<rect x="30.9" y="10.8" class="st2" width="8" height="8"/>
<rect x="41" y="10.8" class="st1" width="8" height="8"/>
<rect x="51" y="10.8" class="st3" width="8" height="8"/>
<rect x="61" y="10.8" class="st3" width="8" height="8"/>
<rect x="71.1" y="10.8" class="st2" width="8" height="8"/>
<rect x="81.1" y="10.8" class="st1" width="8" height="8"/>
<rect x="91.2" y="10.8" class="st1" width="8" height="8"/>
<rect x="0.8" y="20.9" class="st0" width="8" height="8"/>
<rect x="10.8" y="20.9" class="st2" width="8" height="8"/>
<rect x="20.9" y="20.9" class="st3" width="8" height="8"/>
<rect x="30.9" y="20.9" class="st1" width="8" height="8"/>
<rect x="41" y="20.9" class="st0" width="8" height="8"/>
<rect x="51" y="20.9" class="st3" width="8" height="8"/>
<rect x="61" y="20.9" class="st2" width="8" height="8"/>
<rect x="71.1" y="20.9" class="st2" width="8" height="8"/>
<rect x="81.1" y="20.9" class="st0" width="8" height="8"/>
<rect x="91.2" y="20.9" class="st2" width="8" height="8"/>
<rect x="0.8" y="30.9" class="st1" width="8" height="8"/>
<rect x="10.8" y="30.9" class="st1" width="8" height="8"/>
<rect x="20.9" y="30.9" class="st1" width="8" height="8"/>
<rect x="30.9" y="30.9" class="st1" width="8" height="8"/>
<rect x="41" y="30.9" class="st0" width="8" height="8"/>
<rect x="51" y="30.9" class="st2" width="8" height="8"/>
<rect x="61" y="30.9" class="st1" width="8" height="8"/>
<rect x="71.1" y="30.9" class="st2" width="8" height="8"/>
<rect x="81.1" y="30.9" class="st3" width="8" height="8"/>
<rect x="91.2" y="30.9" class="st2" width="8" height="8"/>
<rect x="0.8" y="41" class="st2" width="8" height="8"/>
<rect x="10.8" y="41" class="st0" width="8" height="8"/>
<rect x="20.9" y="41" class="st1" width="8" height="8"/>
<rect x="30.9" y="41" class="st3" width="8" height="8"/>
<rect x="41" y="41" class="st0" width="8" height="8"/>
<rect x="51" y="41" class="st3" width="8" height="8"/>
<rect x="61" y="41" class="st3" width="8" height="8"/>
<rect x="71.1" y="41" class="st1" width="8" height="8"/>
<rect x="81.1" y="41" class="st2" width="8" height="8"/>
<rect x="91.2" y="41" class="st0" width="8" height="8"/>
<rect x="0.8" y="51" class="st0" width="8" height="8"/>
<rect x="10.8" y="51" class="st2" width="8" height="8"/>
<rect x="20.9" y="51" class="st2" width="8" height="8"/>
<rect x="30.9" y="51" class="st2" width="8" height="8"/>
<rect x="41" y="51" class="st1" width="8" height="8"/>
<rect x="51" y="51" class="st1" width="8" height="8"/>
<rect x="61" y="51" class="st3" width="8" height="8"/>
<rect x="71.1" y="51" class="st3" width="8" height="8"/>
<rect x="81.1" y="51" class="st0" width="8" height="8"/>
<rect x="91.2" y="51" class="st1" width="8" height="8"/>
<rect x="0.8" y="61" class="st3" width="8" height="8"/>
<rect x="10.8" y="61" class="st3" width="8" height="8"/>
<rect x="20.9" y="61" class="st2" width="8" height="8"/>
<rect x="30.9" y="61" class="st3" width="8" height="8"/>
<rect x="41" y="61" class="st3" width="8" height="8"/>
<rect x="51" y="61" class="st0" width="8" height="8"/>
<rect x="61" y="61" class="st1" width="8" height="8"/>
<rect x="71.1" y="61" class="st2" width="8" height="8"/>
<rect x="81.1" y="61" class="st2" width="8" height="8"/>
<rect x="91.2" y="61" class="st3" width="8" height="8"/>
<rect x="0.8" y="71.1" class="st0" width="8" height="8"/>
<rect x="10.8" y="71.1" class="st1" width="8" height="8"/>
<rect x="20.9" y="71.1" class="st2" width="8" height="8"/>
<rect x="30.9" y="71.1" class="st2" width="8" height="8"/>
<rect x="41" y="71.1" class="st1" width="8" height="8"/>
<rect x="51" y="71.1" class="st2" width="8" height="8"/>
<rect x="61" y="71.1" class="st1" width="8" height="8"/>
<rect x="71.1" y="71.1" class="st3" width="8" height="8"/>
<rect x="81.1" y="71.1" class="st1" width="8" height="8"/>
<rect x="91.2" y="71.1" class="st0" width="8" height="8"/>
<rect x="0.8" y="81.1" class="st1" width="8" height="8"/>
<rect x="10.8" y="81.1" class="st3" width="8" height="8"/>
<rect x="20.9" y="81.1" class="st3" width="8" height="8"/>
<rect x="30.9" y="81.1" class="st0" width="8" height="8"/>
<rect x="41" y="81.1" class="st3" width="8" height="8"/>
<rect x="51" y="81.1" class="st0" width="8" height="8"/>
<rect x="61" y="81.1" class="st2" width="8" height="8"/>
<rect x="71.1" y="81.1" class="st0" width="8" height="8"/>
<rect x="81.1" y="81.1" class="st4" width="8" height="8"/>
<rect x="91.2" y="81.1" class="st1" width="8" height="8"/>
<rect x="0.8" y="91.2" class="st0" width="8" height="8"/>
<rect x="10.8" y="91.2" class="st3" width="8" height="8"/>
<rect x="20.9" y="91.2" class="st0" width="8" height="8"/>
<rect x="30.9" y="91.2" class="st2" width="8" height="8"/>
<rect x="41" y="91.2" class="st3" width="8" height="8"/>
<rect x="51" y="91.2" class="st0" width="8" height="8"/>
<rect x="61" y="91.2" class="st1" width="8" height="8"/>
<rect x="71.1" y="91.2" class="st2" width="8" height="8"/>
<rect x="81.1" y="91.2" class="st3" width="8" height="8"/>
<rect x="91.2" y="91.2" class="st1" width="8" height="8"/>
<line class="st5" x1="0" y1="50" x2="100" y2="50"/>
<line class="st5" x1="50" y1="0" x2="50" y2="100"/>
</svg>
