<?xml version="1.0" encoding="utf-8"?>
<!-- Generator: Adobe Illustrator 19.0.1, SVG Export Plug-In . SVG Version: 6.00 Build 0)  -->
<svg version="1.1" id="Layer_1" xmlns="http://www.w3.org/2000/svg" xmlns:xlink="http://www.w3.org/1999/xlink" x="0px" y="0px"
	 viewBox="0 0 500 497.3" style="enable-background:new 0 0 500 497.3;" xml:space="preserve">
<style type="text/css">
	.st0{fill:none;stroke:#CCCCCC;stroke-miterlimit:10;}
	.st1{fill:none;stroke:#CCCCCC;stroke-miterlimit:10;stroke-dasharray:5,5;}
	.st2{font-family:'HelveticaNeue';}
	.st3{font-size:22px;}
	.st4{fill:#BFE577;stroke:#666666;stroke-miterlimit:10;}
	.st5{font-family:'HelveticaNeue-Light';}
	.st6{font-size:14px;}
	.st7{fill:#FFFFFF;stroke:#666666;stroke-miterlimit:10;}
	.st8{fill:#3D6B24;stroke:#666666;stroke-miterlimit:10;}
	.st9{fill:#689440;stroke:#666666;stroke-miterlimit:10;}
	.st10{fill:#B1C4E5;stroke:#666666;stroke-miterlimit:10;}
	.st11{fill:#BA9BC9;stroke:#666666;stroke-miterlimit:10;}
	.st12{font-family:'Rokkitt-Bold';}
	.st13{font-size:62.125px;}
	.st14{fill:#BA9BC9;}
	.st15{fill:none;stroke:#999999;stroke-width:3;stroke-miterlimit:10;}
	.st16{fill:#999999;}
</style>
<g>
	<g>
		<line class="st0" x1="0" y1="75" x2="2.5" y2="75"/>
		<line class="st1" x1="7.5" y1="75" x2="495" y2="75"/>
		<line class="st0" x1="497.5" y1="75" x2="500" y2="75"/>
	</g>
</g>
<g>
	<text transform="matrix(1 0 0 1 19.8623 39.7368)" class="st2 st3">I.</text>
</g>
<text transform="matrix(1 0 0 1 14.1641 116.875)" class="st2 st3">II.</text>
<text transform="matrix(1 0 0 1 8.4668 191.8745)" class="st2 st3">III.</text>
<g>
	<rect x="415.1" y="5.6" class="st4" width="27.6" height="15"/>
	<rect x="442.7" y="5.6" class="st4" width="27.6" height="15"/>
	<rect x="415.1" y="20.6" class="st4" width="27.6" height="15"/>
	<rect x="387.5" y="20.6" class="st4" width="27.6" height="15"/>
	<rect x="415.1" y="35.6" class="st4" width="27.6" height="15"/>
	<rect x="442.7" y="20.6" class="st4" width="27.6" height="15"/>
	<rect x="442.7" y="35.6" class="st4" width="27.6" height="15"/>
	<rect x="387.5" y="5.6" class="st4" width="27.6" height="15"/>
	<rect x="470.4" y="50.6" class="st4" width="27.6" height="15"/>
	<rect x="470.4" y="35.6" class="st4" width="27.6" height="15"/>
	<rect x="470.4" y="20.6" class="st4" width="27.6" height="15"/>
	<rect x="470.4" y="5.6" class="st4" width="27.6" height="15"/>
	<rect x="387.5" y="35.6" class="st4" width="27.6" height="15"/>
	<rect x="442.7" y="50.6" class="st4" width="27.6" height="15"/>
	<rect x="387.5" y="50.6" class="st4" width="27.6" height="15"/>
	<rect x="415.1" y="50.6" class="st4" width="27.6" height="15"/>
</g>
<g>
	<text transform="matrix(1 0 0 1 234.3867 107.9717)"><tspan x="0" y="0" class="st5 st6">create a task for</tspan><tspan x="-7.9" y="16.8" class="st5 st6">each data attribute</tspan></text>
</g>
<g>
	<rect x="415.1" y="82.7" class="st4" width="27.6" height="15"/>
	<rect x="442.7" y="82.7" class="st7" width="27.6" height="15"/>
	<rect x="415.1" y="97.7" class="st4" width="27.6" height="15"/>
	<rect x="387.5" y="97.7" class="st7" width="27.6" height="15"/>
	<rect x="415.1" y="112.7" class="st4" width="27.6" height="15"/>
	<rect x="442.7" y="97.7" class="st7" width="27.6" height="15"/>
	<rect x="442.7" y="112.7" class="st7" width="27.6" height="15"/>
	<rect x="387.5" y="82.7" class="st7" width="27.6" height="15"/>
	<rect x="470.4" y="127.7" class="st7" width="27.6" height="15"/>
	<rect x="470.4" y="112.7" class="st7" width="27.6" height="15"/>
	<rect x="470.4" y="97.7" class="st7" width="27.6" height="15"/>
	<rect x="470.4" y="82.7" class="st7" width="27.6" height="15"/>
	<rect x="387.5" y="112.7" class="st7" width="27.6" height="15"/>
	<rect x="442.7" y="127.7" class="st7" width="27.6" height="15"/>
	<rect x="387.5" y="127.7" class="st7" width="27.6" height="15"/>
	<rect x="415.1" y="127.7" class="st4" width="27.6" height="15"/>
</g>
<text transform="matrix(1 0 0 1 197.9463 174.5713)"><tspan x="0" y="0" class="st5 st6">create a task where workers</tspan><tspan x="12.5" y="16.8" class="st5 st6">iteratively enter as much</tspan><tspan x="47" y="33.6" class="st5 st6">as they want</tspan></text>
<g>
	<rect x="415.1" y="157.7" class="st8" width="27.6" height="15"/>
	<rect x="442.7" y="157.7" class="st4" width="27.6" height="15"/>
	<rect x="415.1" y="172.7" class="st8" width="27.6" height="15"/>
	<rect x="387.5" y="172.7" class="st4" width="27.6" height="15"/>
	<rect x="415.1" y="187.7" class="st8" width="27.6" height="15"/>
	<rect x="442.7" y="172.7" class="st8" width="27.6" height="15"/>
	<rect x="442.7" y="187.7" class="st4" width="27.6" height="15"/>
	<rect x="387.5" y="157.7" class="st4" width="27.6" height="15"/>
	<rect x="470.4" y="202.7" class="st4" width="27.6" height="15"/>
	<rect x="470.4" y="187.7" class="st8" width="27.6" height="15"/>
	<rect x="470.4" y="172.7" class="st8" width="27.6" height="15"/>
	<rect x="470.4" y="157.7" class="st9" width="27.6" height="15"/>
	<rect x="387.5" y="187.7" class="st9" width="27.6" height="15"/>
	<rect x="442.7" y="202.7" class="st9" width="27.6" height="15"/>
	<rect x="387.5" y="202.7" class="st9" width="27.6" height="15"/>
	<rect x="415.1" y="202.7" class="st4" width="27.6" height="15"/>
</g>
<text transform="matrix(1 0 0 1 3.5488 267.2744)" class="st2 st3">IV.</text>
<text transform="matrix(1 0 0 1 204.5537 266.7715)" class="st5 st6">create a task for each row</text>
<g>
	<rect x="415.1" y="233.1" class="st7" width="27.6" height="15"/>
	<rect x="442.7" y="233.1" class="st7" width="27.6" height="15"/>
	<rect x="415.1" y="248.1" class="st4" width="27.6" height="15"/>
	<rect x="387.5" y="248.1" class="st10" width="27.6" height="15"/>
	<rect x="415.1" y="263.1" class="st7" width="27.6" height="15"/>
	<rect x="442.7" y="248.1" class="st4" width="27.6" height="15"/>
	<rect x="442.7" y="263.1" class="st7" width="27.6" height="15"/>
	<rect x="387.5" y="233.1" class="st10" width="27.6" height="15"/>
	<rect x="470.4" y="278.1" class="st7" width="27.6" height="15"/>
	<rect x="470.4" y="263.1" class="st7" width="27.6" height="15"/>
	<rect x="470.4" y="248.1" class="st4" width="27.6" height="15"/>
	<rect x="470.4" y="233.1" class="st7" width="27.6" height="15"/>
	<rect x="387.5" y="263.1" class="st10" width="27.6" height="15"/>
	<rect x="442.7" y="278.1" class="st7" width="27.6" height="15"/>
	<rect x="387.5" y="278.1" class="st10" width="27.6" height="15"/>
	<rect x="415.1" y="278.1" class="st7" width="27.6" height="15"/>
</g>
<text transform="matrix(1 0 0 1 12.1182 340.875)" class="st2 st3">V.</text>
<text transform="matrix(1 0 0 1 216.4893 331.9722)"><tspan x="0" y="0" class="st5 st6">create a task for every</tspan><tspan x="46.3" y="16.8" class="st5 st6">n rows</tspan></text>
<g>
	<rect x="415.1" y="306.7" class="st7" width="27.6" height="15"/>
	<rect x="442.7" y="306.7" class="st7" width="27.6" height="15"/>
	<rect x="415.1" y="321.7" class="st4" width="27.6" height="15"/>
	<rect x="387.5" y="321.7" class="st10" width="27.6" height="15"/>
	<rect x="415.1" y="336.7" class="st4" width="27.6" height="15"/>
	<rect x="442.7" y="321.7" class="st4" width="27.6" height="15"/>
	<rect x="442.7" y="336.7" class="st4" width="27.6" height="15"/>
	<rect x="387.5" y="306.7" class="st10" width="27.6" height="15"/>
	<rect x="470.4" y="351.7" class="st7" width="27.6" height="15"/>
	<rect x="470.4" y="336.7" class="st4" width="27.6" height="15"/>
	<rect x="470.4" y="321.7" class="st4" width="27.6" height="15"/>
	<rect x="470.4" y="306.7" class="st7" width="27.6" height="15"/>
	<rect x="387.5" y="336.7" class="st10" width="27.6" height="15"/>
	<rect x="442.7" y="351.7" class="st7" width="27.6" height="15"/>
	<rect x="387.5" y="351.7" class="st10" width="27.6" height="15"/>
	<rect x="415.1" y="351.7" class="st7" width="27.6" height="15"/>
</g>
<text transform="matrix(1 0 0 1 6.4199 416.5298)" class="st2 st3">VI.</text>
<text transform="matrix(1 0 0 1 205.9824 416.0269)" class="st5 st6">create a task for each cell</text>
<g>
	<rect x="415.1" y="382.4" class="st4" width="27.6" height="15"/>
	<rect x="442.7" y="382.4" class="st7" width="27.6" height="15"/>
	<rect x="415.1" y="397.4" class="st7" width="27.6" height="15"/>
	<rect x="387.5" y="397.4" class="st10" width="27.6" height="15"/>
	<rect x="415.1" y="412.4" class="st7" width="27.6" height="15"/>
	<rect x="442.7" y="397.4" class="st7" width="27.6" height="15"/>
	<rect x="442.7" y="412.4" class="st7" width="27.6" height="15"/>
	<rect x="387.5" y="382.4" class="st10" width="27.6" height="15"/>
	<rect x="470.4" y="427.4" class="st7" width="27.6" height="15"/>
	<rect x="470.4" y="412.4" class="st7" width="27.6" height="15"/>
	<rect x="470.4" y="397.4" class="st7" width="27.6" height="15"/>
	<rect x="470.4" y="382.4" class="st7" width="27.6" height="15"/>
	<rect x="387.5" y="412.4" class="st10" width="27.6" height="15"/>
	<rect x="442.7" y="427.4" class="st7" width="27.6" height="15"/>
	<rect x="387.5" y="427.4" class="st10" width="27.6" height="15"/>
	<rect x="415.1" y="427.4" class="st7" width="27.6" height="15"/>
</g>
<g>
	<text transform="matrix(1 0 0 1 211.0508 39.2339)" class="st5 st6">create a task for all cells</text>
</g>
<g>
	<text transform="matrix(1 0 0 1 50.6992 50.3809)" class="st11 st12 st13">D</text>
	<g>
		<line class="st14" x1="99.2" y1="35.6" x2="190" y2="35.6"/>
		<g>
			<line class="st15" x1="99.2" y1="35.6" x2="186.8" y2="35.6"/>
			<g>
				<polygon class="st16" points="176.8,47.9 174.8,45.7 185.6,35.6 174.8,25.5 176.8,23.3 190,35.6 				"/>
			</g>
		</g>
	</g>
</g>
<g>
	<text transform="matrix(1 0 0 1 50.6992 127.5196)" class="st11 st12 st13">D</text>
	<g>
		<line class="st14" x1="99.2" y1="112.7" x2="190" y2="112.7"/>
		<g>
			<line class="st15" x1="99.2" y1="112.7" x2="186.8" y2="112.7"/>
			<g>
				<polygon class="st16" points="176.8,125 174.8,122.8 185.6,112.7 174.8,102.7 176.8,100.5 190,112.7 				"/>
			</g>
		</g>
	</g>
</g>
<g>
	<text transform="matrix(1 0 0 1 50.6992 202.5196)" class="st11 st12 st13">D</text>
	<g>
		<line class="st14" x1="99.2" y1="187.7" x2="190" y2="187.7"/>
		<g>
			<line class="st15" x1="99.2" y1="187.7" x2="186.8" y2="187.7"/>
			<g>
				<polygon class="st16" points="176.8,200 174.8,197.8 185.6,187.7 174.8,177.7 176.8,175.5 190,187.7 				"/>
			</g>
		</g>
	</g>
</g>
<g>
	<text transform="matrix(1 0 0 1 137.2695 277.919)" class="st10 st12 st13">I</text>
	<text transform="matrix(1 0 0 1 50.6992 277.9195)" class="st11 st12 st13">D</text>
	<g>
		<line class="st14" x1="99.2" y1="263.1" x2="126.8" y2="263.1"/>
		<g>
			<line class="st15" x1="99.2" y1="263.1" x2="123.5" y2="263.1"/>
			<g>
				<polygon class="st16" points="113.6,275.4 111.6,273.2 122.4,263.1 111.6,253.1 113.6,250.9 126.8,263.1 				"/>
			</g>
		</g>
	</g>
	<g>
		<line class="st14" x1="161.2" y1="263.1" x2="190" y2="263.1"/>
		<g>
			<line class="st15" x1="161.2" y1="263.1" x2="186.8" y2="263.1"/>
			<g>
				<polygon class="st16" points="176.8,275.4 174.8,273.2 185.6,263.1 174.8,253.1 176.8,250.9 190,263.1 				"/>
			</g>
		</g>
	</g>
</g>
<g>
	<text transform="matrix(1 0 0 1 137.2695 351.5196)" class="st10 st12 st13">I</text>
	<text transform="matrix(1 0 0 1 50.6992 351.5201)" class="st11 st12 st13">D</text>
	<g>
		<line class="st14" x1="99.2" y1="336.7" x2="126.8" y2="336.7"/>
		<g>
			<line class="st15" x1="99.2" y1="336.7" x2="123.5" y2="336.7"/>
			<g>
				<polygon class="st16" points="113.6,349 111.6,346.8 122.4,336.7 111.6,326.7 113.6,324.5 126.8,336.7 				"/>
			</g>
		</g>
	</g>
	<g>
		<line class="st14" x1="161.2" y1="336.7" x2="190" y2="336.7"/>
		<g>
			<line class="st15" x1="161.2" y1="336.7" x2="186.8" y2="336.7"/>
			<g>
				<polygon class="st16" points="176.8,349 174.8,346.8 185.6,336.7 174.8,326.7 176.8,324.5 190,336.7 				"/>
			</g>
		</g>
	</g>
</g>
<g>
	<text transform="matrix(1 0 0 1 137.2695 427.1739)" class="st10 st12 st13">I</text>
	<text transform="matrix(1 0 0 1 50.6992 427.1743)" class="st11 st12 st13">D</text>
	<g>
		<line class="st14" x1="99.2" y1="412.4" x2="126.8" y2="412.4"/>
		<g>
			<line class="st15" x1="99.2" y1="412.4" x2="123.5" y2="412.4"/>
			<g>
				<polygon class="st16" points="113.6,424.7 111.6,422.5 122.4,412.4 111.6,402.3 113.6,400.1 126.8,412.4 				"/>
			</g>
		</g>
	</g>
	<g>
		<line class="st14" x1="161.2" y1="412.4" x2="190" y2="412.4"/>
		<g>
			<line class="st15" x1="161.2" y1="412.4" x2="186.8" y2="412.4"/>
			<g>
				<polygon class="st16" points="176.8,424.7 174.8,422.5 185.6,412.4 174.8,402.3 176.8,400.1 190,412.4 				"/>
			</g>
		</g>
	</g>
</g>
<g>
	<g>
		<line class="st0" x1="0" y1="150.1" x2="2.5" y2="150.1"/>
		<line class="st1" x1="7.5" y1="150.1" x2="495" y2="150.1"/>
		<line class="st0" x1="497.5" y1="150.1" x2="500" y2="150.1"/>
	</g>
</g>
<g>
	<g>
		<line class="st0" x1="0" y1="225.1" x2="2.5" y2="225.1"/>
		<line class="st1" x1="7.5" y1="225.1" x2="495" y2="225.1"/>
		<line class="st0" x1="497.5" y1="225.1" x2="500" y2="225.1"/>
	</g>
</g>
<g>
	<g>
		<line class="st0" x1="0" y1="300.1" x2="2.5" y2="300.1"/>
		<line class="st1" x1="7.5" y1="300.1" x2="495" y2="300.1"/>
		<line class="st0" x1="497.5" y1="300.1" x2="500" y2="300.1"/>
	</g>
</g>
<g>
	<g>
		<line class="st0" x1="0" y1="375.1" x2="2.5" y2="375.1"/>
		<line class="st1" x1="7.5" y1="375.1" x2="495" y2="375.1"/>
		<line class="st0" x1="497.5" y1="375.1" x2="500" y2="375.1"/>
	</g>
</g>
<g>
	<text transform="matrix(1 0 0 1 58.167 483.312)" class="st5 st6">Define a goal</text>
	<g>
		<path class="st11" d="M2.3,494.5v-4.3h5.2v-28.3H2.3v-4.2h18.2c3.3,0,6.1,0.5,8.6,1.4c2.4,0.9,4.4,2.2,6,3.9
			c1.6,1.6,2.8,3.6,3.6,5.8c0.8,2.2,1.2,4.6,1.2,7.1c0,2.9-0.4,5.5-1.2,7.8c-0.8,2.3-2,4.3-3.6,5.9c-1.6,1.6-3.6,2.8-6.1,3.7
			c-2.4,0.9-5.2,1.3-8.5,1.3H2.3z M14.2,490.2h5.7c2.4,0,4.4-0.4,6.1-1.1c1.7-0.7,3-1.7,4.1-3c1-1.3,1.8-2.8,2.3-4.5
			c0.5-1.7,0.7-3.6,0.7-5.7c0-2-0.2-3.9-0.7-5.6c-0.5-1.7-1.2-3.2-2.3-4.5c-1-1.3-2.4-2.2-4-3c-1.6-0.7-3.6-1.1-5.9-1.1h-6V490.2z"
			/>
	</g>
</g>
<g>
	<g>
		<path class="st10" d="M190,494.5v-4.3h4.7v-28.3H190v-4.2h16v4.2h-4.7v28.3h4.7v4.3H190z"/>
	</g>
	<g>
		<text transform="matrix(1 0 0 1 234.8945 483.3116)" class="st5 st6">Create a row index via crowdsourcing</text>
	</g>
</g>
<g>
	<g>
		<line class="st0" x1="1.6" y1="450.1" x2="4.1" y2="450.1"/>
		<line class="st1" x1="9.1" y1="450.1" x2="496.6" y2="450.1"/>
		<line class="st0" x1="499.1" y1="450.1" x2="501.6" y2="450.1"/>
	</g>
</g>
</svg>
